<svg width="44" height="44" viewBox="0 0 44 44" fill="none" xmlns="http://www.w3.org/2000/svg">
    <rect x="5" y="19" width="34" height="20" rx="4" fill="#3B84FF" />
    <rect x="5.5" y="19.5" width="33" height="19" rx="3.5" stroke="black" stroke-opacity="0.15" />
    <mask id="path-4-inside-1_9_1306" fill="white">
        <path
            d="M34 12.9521V34C34 36.209 32.209 37.9998 30 38H14C11.7909 38 10 36.2091 10 34V10C10 7.79086 11.7909 6 14 6H27.0479L34 12.9521Z" />
    </mask>
    <path
        d="M34 12.9521V34C34 36.209 32.209 37.9998 30 38H14C11.7909 38 10 36.2091 10 34V10C10 7.79086 11.7909 6 14 6H27.0479L34 12.9521Z"
        fill="white" />
    <path
        d="M34 12.9521H35V12.5379L34.7071 12.245L34 12.9521ZM30 38V39H30.0001L30 38ZM14 38L14 39H14V38ZM10 10H9H10ZM14 6V5V6ZM27.0479 6L27.755 5.29289L27.4621 5H27.0479V6ZM34 12.9521H33V34H34H35V12.9521H34ZM34 34H33C33 35.6567 31.6568 36.9999 29.9999 37L30 38L30.0001 39C32.7612 38.9998 35 36.7614 35 34H34ZM30 38V37H14V38V39H30V38ZM14 38L14 37C12.3431 37 11 35.6569 11 34H10H9C9 36.7614 11.2386 39 14 39L14 38ZM10 34H11V10H10H9V34H10ZM10 10H11C11 8.34315 12.3431 7 14 7V6V5C11.2386 5 9 7.23858 9 10H10ZM14 6V7H27.0479V6V5H14V6ZM27.0479 6L26.3407 6.70711L33.2929 13.6593L34 12.9521L34.7071 12.245L27.755 5.29289L27.0479 6Z"
        fill="#89B5FF" mask="url(#path-4-inside-1_9_1306)" />
    <path
        d="M28.502 13.5488C27.3103 13.5488 26.3438 12.5823 26.3438 11.3906V6.54688L33.3447 13.5488H28.502Z"
        fill="#89B5FF" />
    <mask id="path-7-inside-2_9_1306" fill="white">
        <path
            d="M39 35C39 37.2091 37.2091 39 35 39H8C11.3137 39 14 36.3137 14 33V30C14 27.7909 15.7909 26 18 26H35C37.2091 26 39 27.7909 39 30V35Z" />
    </mask>
    <path
        d="M39 35C39 37.2091 37.2091 39 35 39H8C11.3137 39 14 36.3137 14 33V30C14 27.7909 15.7909 26 18 26H35C37.2091 26 39 27.7909 39 30V35Z"
        fill="#3B84FF" />
    <path
        d="M35 39V38H8V39V40H35V39ZM8 39L8 40C11.866 40 15 36.866 15 33H14H13C13 35.7614 10.7614 38 8 38L8 39ZM14 33H15V30H14H13V33H14ZM18 26V27H35V26V25H18V26ZM39 30H38V35H39H40V30H39ZM35 26V27C36.6569 27 38 28.3431 38 30H39H40C40 27.2386 37.7614 25 35 25V26ZM14 30H15C15 28.3431 16.3431 27 18 27V26V25C15.2386 25 13 27.2386 13 30H14ZM35 39V40C37.7614 40 40 37.7614 40 35H39H38C38 36.6569 36.6569 38 35 38V39Z"
        fill="black" fill-opacity="0.15" mask="url(#path-7-inside-2_9_1306)" />
    <path
        d="M17.0737 36V29.6587H19.6489C21.5605 29.6587 22.6899 30.7661 22.6899 32.7832V32.792C22.6899 34.8179 21.5605 36 19.6489 36H17.0737ZM18.6865 34.6992H19.438C20.4883 34.6992 21.0508 34.062 21.0508 32.7964V32.7876C21.0508 31.6011 20.4531 30.9595 19.438 30.9595H18.6865V34.6992ZM26.4253 36.1143C24.5005 36.1143 23.2964 34.853 23.2964 32.8315V32.8228C23.2964 30.8057 24.5093 29.5444 26.4253 29.5444C28.3545 29.5444 29.5586 30.8057 29.5586 32.8228V32.8315C29.5586 34.853 28.3589 36.1143 26.4253 36.1143ZM26.4253 34.7783C27.3481 34.7783 27.9194 34.0225 27.9194 32.8315V32.8228C27.9194 31.623 27.335 30.8804 26.4253 30.8804C25.5244 30.8804 24.9399 31.6187 24.9399 32.8228V32.8315C24.9399 34.0356 25.52 34.7783 26.4253 34.7783ZM33.2544 36.1143C31.3516 36.1143 30.1694 34.897 30.1694 32.8271V32.8228C30.1694 30.7529 31.3604 29.5444 33.2544 29.5444C34.9111 29.5444 36.0581 30.6079 36.1152 32.0273V32.0713H34.564L34.5552 32.0054C34.4541 31.3462 33.9927 30.8804 33.2544 30.8804C32.3711 30.8804 31.813 31.6055 31.813 32.8184V32.8228C31.813 34.0488 32.3755 34.7783 33.2588 34.7783C33.9575 34.7783 34.4541 34.3433 34.564 33.6357L34.5728 33.5874H36.124L36.1196 33.6357C36.0625 35.0552 34.9023 36.1143 33.2544 36.1143Z"
        fill="white" />
    <path d="M16 21L28 21" stroke="#3B84FF" stroke-width="2" stroke-linecap="round" />
    <path d="M16 16L23 16" stroke="#3B84FF" stroke-width="2" stroke-linecap="round" />
</svg>
