<svg width="44" height="44" viewBox="0 0 44 44" fill="none" xmlns="http://www.w3.org/2000/svg">
    <path
        d="M29.4601 12.2684L32.7912 30.5802C33.1865 32.7537 31.7451 34.8361 29.5716 35.2315L17.7654 37.3791C14.5052 37.9722 11.3815 35.81 10.7884 32.5498L7.20904 12.8727C6.81367 10.6993 8.25511 8.61681 10.4286 8.22144L20.8695 6.32217L29.4601 12.2684Z"
        fill="#80AFFF" fill-opacity="0.3" />
    <path
        d="M10.5181 8.71337L20.7553 6.85115L29.0053 12.5616L32.2992 30.6697C32.6452 32.5715 31.3839 34.3936 29.4821 34.7396L17.6759 36.8872C14.6874 37.4308 11.824 35.4489 11.2803 32.4603L7.70097 12.7833C7.36581 10.9408 8.53927 9.17336 10.3422 8.75033L10.5181 8.71337Z"
        stroke="#80AFFF" stroke-opacity="0.5" />
    <mask id="path-4-inside-1_18_2668" fill="white">
        <path
            d="M35 13.392V32.0043C35 34.2135 33.2091 36.0043 31 36.0043H17C14.7909 36.0043 13 34.2135 13 32.0043V10.0043C13 7.79519 14.7909 6.00433 17 6.00433H27.6123L35 13.392Z" />
    </mask>
    <path
        d="M35 13.392V32.0043C35 34.2135 33.2091 36.0043 31 36.0043H17C14.7909 36.0043 13 34.2135 13 32.0043V10.0043C13 7.79519 14.7909 6.00433 17 6.00433H27.6123L35 13.392Z"
        fill="white" />
    <path
        d="M35 13.392H36V12.9778L35.7071 12.6849L35 13.392ZM31 36.0043V37.0043V36.0043ZM17 36.0043V37.0043V36.0043ZM13 32.0043H12H13ZM17 6.00433V5.00433V6.00433ZM27.6123 6.00433L28.3194 5.29723L28.0265 5.00433H27.6123V6.00433ZM35 13.392H34V32.0043H35H36V13.392H35ZM35 32.0043H34C34 33.6612 32.6569 35.0043 31 35.0043V36.0043V37.0043C33.7614 37.0043 36 34.7658 36 32.0043H35ZM31 36.0043V35.0043H17V36.0043V37.0043H31V36.0043ZM17 36.0043V35.0043C15.3431 35.0043 14 33.6612 14 32.0043H13H12C12 34.7658 14.2386 37.0043 17 37.0043V36.0043ZM13 32.0043H14V10.0043H13H12V32.0043H13ZM13 10.0043H14C14 8.34748 15.3431 7.00433 17 7.00433V6.00433V5.00433C14.2386 5.00433 12 7.24291 12 10.0043H13ZM17 6.00433V7.00433H27.6123V6.00433V5.00433H17V6.00433ZM27.6123 6.00433L26.9052 6.71144L34.2929 14.0991L35 13.392L35.7071 12.6849L28.3194 5.29723L27.6123 6.00433Z"
        fill="url(#paint0_linear_18_2668)" mask="url(#path-4-inside-1_18_2668)" />
    <path
        d="M15.6211 31V25.3633H17.9102C19.6094 25.3633 20.6133 26.3477 20.6133 28.1406V28.1484C20.6133 29.9492 19.6094 31 17.9102 31H15.6211ZM17.0547 29.8438H17.7227C18.6562 29.8438 19.1562 29.2773 19.1562 28.1523V28.1445C19.1562 27.0898 18.625 26.5195 17.7227 26.5195H17.0547V29.8438ZM23.9336 31.1016C22.2227 31.1016 21.1523 29.9805 21.1523 28.1836V28.1758C21.1523 26.3828 22.2305 25.2617 23.9336 25.2617C25.6484 25.2617 26.7188 26.3828 26.7188 28.1758V28.1836C26.7188 29.9805 25.6523 31.1016 23.9336 31.1016ZM23.9336 29.9141C24.7539 29.9141 25.2617 29.2422 25.2617 28.1836V28.1758C25.2617 27.1094 24.7422 26.4492 23.9336 26.4492C23.1328 26.4492 22.6133 27.1055 22.6133 28.1758V28.1836C22.6133 29.2539 23.1289 29.9141 23.9336 29.9141ZM30.0039 31.1016C28.3125 31.1016 27.2617 30.0195 27.2617 28.1797V28.1758C27.2617 26.3359 28.3203 25.2617 30.0039 25.2617C31.4766 25.2617 32.4961 26.207 32.5469 27.4688V27.5078H31.168L31.1602 27.4492C31.0703 26.8633 30.6602 26.4492 30.0039 26.4492C29.2188 26.4492 28.7227 27.0938 28.7227 28.1719V28.1758C28.7227 29.2656 29.2227 29.9141 30.0078 29.9141C30.6289 29.9141 31.0703 29.5273 31.168 28.8984L31.1758 28.8555H32.5547L32.5508 28.8984C32.5 30.1602 31.4688 31.1016 30.0039 31.1016Z"
        fill="url(#paint1_linear_18_2668)" />
    <path d="M17 21H30" stroke="#80AFFF" stroke-width="1.25" stroke-linecap="round" />
    <path d="M17 18H30" stroke="#80AFFF" stroke-width="1.25" stroke-linecap="round" />
    <path d="M17 15L23.8571 15" stroke="#80AFFF" stroke-width="1.25" stroke-linecap="round" />
    <path d="M29.7617 13.3896C28.5733 13.3896 27.6094 12.4258 27.6094 11.2373V6L35 13.3896H29.7617Z"
        fill="#80AFFF" />
    <defs>
        <linearGradient id="paint0_linear_18_2668" x1="13" y1="6.00433" x2="35.6367" y2="35.5159"
            gradientUnits="userSpaceOnUse">
            <stop stop-color="#5997FF" />
            <stop offset="1" stop-color="#2979FF" />
        </linearGradient>
        <linearGradient id="paint1_linear_18_2668" x1="15" y1="23" x2="19.4484" y2="37.2349"
            gradientUnits="userSpaceOnUse">
            <stop stop-color="#5997FF" />
            <stop offset="1" stop-color="#2979FF" />
        </linearGradient>
    </defs>
</svg>
