<svg width="44" height="44" viewBox="0 0 44 44" fill="none" xmlns="http://www.w3.org/2000/svg">
    <rect x="5" y="19" width="34" height="20" rx="4" fill="#3F9E43" />
    <rect x="5.5" y="19.5" width="33" height="19" rx="3.5" stroke="black" stroke-opacity="0.15" />
    <mask id="path-4-inside-1_9_1344" fill="white">
        <path
            d="M34 12.9521V34C34 36.209 32.209 37.9998 30 38H14C11.7909 38 10 36.2091 10 34V10C10 7.79086 11.7909 6 14 6H27.0479L34 12.9521Z" />
    </mask>
    <path
        d="M34 12.9521V34C34 36.209 32.209 37.9998 30 38H14C11.7909 38 10 36.2091 10 34V10C10 7.79086 11.7909 6 14 6H27.0479L34 12.9521Z"
        fill="white" />
    <path
        d="M34 12.9521H35V12.5379L34.7071 12.245L34 12.9521ZM30 38V39H30.0001L30 38ZM14 38L14 39H14V38ZM10 10H9H10ZM14 6V5V6ZM27.0479 6L27.755 5.29289L27.4621 5H27.0479V6ZM34 12.9521H33V34H34H35V12.9521H34ZM34 34H33C33 35.6567 31.6568 36.9999 29.9999 37L30 38L30.0001 39C32.7612 38.9998 35 36.7614 35 34H34ZM30 38V37H14V38V39H30V38ZM14 38L14 37C12.3431 37 11 35.6569 11 34H10H9C9 36.7614 11.2386 39 14 39L14 38ZM10 34H11V10H10H9V34H10ZM10 10H11C11 8.34315 12.3431 7 14 7V6V5C11.2386 5 9 7.23858 9 10H10ZM14 6V7H27.0479V6V5H14V6ZM27.0479 6L26.3407 6.70711L33.2929 13.6593L34 12.9521L34.7071 12.245L27.755 5.29289L27.0479 6Z"
        fill="#87CB8A" mask="url(#path-4-inside-1_9_1344)" />
    <path
        d="M28.502 13.5488C27.3103 13.5488 26.3438 12.5823 26.3438 11.3906V6.54688L33.3447 13.5488H28.502Z"
        fill="#87CB8A" />
    <mask id="path-7-inside-2_9_1344" fill="white">
        <path
            d="M39 35C39 37.2091 37.2091 39 35 39H8C11.3137 39 14 36.3137 14 33V30C14 27.7909 15.7909 26 18 26H35C37.2091 26 39 27.7909 39 30V35Z" />
    </mask>
    <path
        d="M39 35C39 37.2091 37.2091 39 35 39H8C11.3137 39 14 36.3137 14 33V30C14 27.7909 15.7909 26 18 26H35C37.2091 26 39 27.7909 39 30V35Z"
        fill="#3F9E43" />
    <path
        d="M35 39V38H8V39V40H35V39ZM8 39L8 40C11.866 40 15 36.866 15 33H14H13C13 35.7614 10.7614 38 8 38L8 39ZM14 33H15V30H14H13V33H14ZM18 26V27H35V26V25H18V26ZM39 30H38V35H39H40V30H39ZM35 26V27C36.6569 27 38 28.3431 38 30H39H40C40 27.2386 37.7614 25 35 25V26ZM14 30H15C15 28.3431 16.3431 27 18 27V26V25C15.2386 25 13 27.2386 13 30H14ZM35 39V40C37.7614 40 40 37.7614 40 35H39H38C38 36.6569 36.6569 38 35 38V39Z"
        fill="black" fill-opacity="0.15" mask="url(#path-7-inside-2_9_1344)" />
    <path
        d="M18.0625 36L20.0005 32.814V32.7876L18.0669 29.6587H19.9478L21.1123 31.8076H21.1606L22.3164 29.6587H24.105L22.0879 32.8052V32.8271L24.0874 36H22.2769L21.042 33.9434H21.0024L19.7764 36H18.0625ZM24.7642 36V29.6587H26.377V34.7036H29.0005V36H24.7642ZM32.1821 36.1143C30.6045 36.1143 29.6069 35.4155 29.5366 34.2026L29.5322 34.1235H31.0308L31.0396 34.1719C31.1187 34.5806 31.5933 34.8486 32.2129 34.8486C32.8545 34.8486 33.25 34.5762 33.25 34.1807V34.1763C33.25 33.8159 32.9688 33.6489 32.2261 33.5039L31.5757 33.3809C30.3188 33.1479 29.6553 32.5283 29.6553 31.5571V31.5527C29.6553 30.3311 30.7144 29.5444 32.1689 29.5444C33.7598 29.5444 34.6606 30.2915 34.7178 31.4429L34.7222 31.5352H33.2236L33.2192 31.4868C33.1709 31.0693 32.7622 30.8101 32.1821 30.8101C31.5889 30.8101 31.2549 31.0781 31.2549 31.4429V31.4473C31.2549 31.79 31.5537 31.9702 32.2349 32.0977L32.8853 32.2207C34.23 32.48 34.854 33.0249 34.854 34.04V34.0444C34.854 35.3101 33.8608 36.1143 32.1821 36.1143Z"
        fill="white" />
    <path d="M16 21L28 21" stroke="#3F9E43" stroke-width="2" stroke-linecap="round" />
    <path d="M16 16L23 16" stroke="#3F9E43" stroke-width="2" stroke-linecap="round" />
</svg>
