<svg width="44" height="44" viewBox="0 0 44 44" fill="none" xmlns="http://www.w3.org/2000/svg">
    <path
        d="M29.4601 13.2684L32.7912 31.5802C33.1865 33.7537 31.7451 35.8361 29.5716 36.2315L17.7654 38.3791C14.5052 38.9722 11.3815 36.81 10.7884 33.5498L7.20904 13.8727C6.81367 11.6993 8.25511 9.61681 10.4286 9.22144L20.8695 7.32217L29.4601 13.2684Z"
        fill="#66CC6B" fill-opacity="0.3" />
    <path
        d="M10.5181 9.71337L20.7553 7.85115L29.0053 13.5616L32.2992 31.6697C32.6452 33.5715 31.3839 35.3936 29.4821 35.7396L17.6759 37.8872C14.6874 38.4308 11.824 36.4489 11.2803 33.4603L7.70097 13.7833C7.36581 11.9408 8.53927 10.1734 10.3422 9.75033L10.5181 9.71337Z"
        stroke="#66CC6B" stroke-opacity="0.5" />
    <mask id="path-4-inside-1_18_2683" fill="white">
        <path
            d="M35 13.392V32.0043C35 34.2135 33.2091 36.0043 31 36.0043H17C14.7909 36.0043 13 34.2135 13 32.0043V10.0043C13 7.79519 14.7909 6.00433 17 6.00433H27.6123L35 13.392Z" />
    </mask>
    <path
        d="M35 13.392V32.0043C35 34.2135 33.2091 36.0043 31 36.0043H17C14.7909 36.0043 13 34.2135 13 32.0043V10.0043C13 7.79519 14.7909 6.00433 17 6.00433H27.6123L35 13.392Z"
        fill="white" />
    <path
        d="M35 13.392H36V12.9778L35.7071 12.6849L35 13.392ZM31 36.0043V37.0043V36.0043ZM17 36.0043V37.0043V36.0043ZM13 32.0043H12H13ZM17 6.00433V5.00433V6.00433ZM27.6123 6.00433L28.3194 5.29723L28.0265 5.00433H27.6123V6.00433ZM35 13.392H34V32.0043H35H36V13.392H35ZM35 32.0043H34C34 33.6612 32.6569 35.0043 31 35.0043V36.0043V37.0043C33.7614 37.0043 36 34.7658 36 32.0043H35ZM31 36.0043V35.0043H17V36.0043V37.0043H31V36.0043ZM17 36.0043V35.0043C15.3431 35.0043 14 33.6612 14 32.0043H13H12C12 34.7658 14.2386 37.0043 17 37.0043V36.0043ZM13 32.0043H14V10.0043H13H12V32.0043H13ZM13 10.0043H14C14 8.34748 15.3431 7.00433 17 7.00433V6.00433V5.00433C14.2386 5.00433 12 7.24291 12 10.0043H13ZM17 6.00433V7.00433H27.6123V6.00433V5.00433H17V6.00433ZM27.6123 6.00433L26.9052 6.71144L34.2929 14.0991L35 13.392L35.7071 12.6849L28.3194 5.29723L27.6123 6.00433Z"
        fill="url(#paint0_linear_18_2683)" mask="url(#path-4-inside-1_18_2683)" />
    <path
        d="M16.5 31L18.2227 28.168V28.1445L16.5039 25.3633H18.1758L19.2109 27.2734H19.2539L20.2812 25.3633H21.8711L20.0781 28.1602V28.1797L21.8555 31H20.2461L19.1484 29.1719H19.1133L18.0234 31H16.5ZM22.457 31V25.3633H23.8906V29.8477H26.2227V31H22.457ZM29.0508 31.1016C27.6484 31.1016 26.7617 30.4805 26.6992 29.4023L26.6953 29.332H28.0273L28.0352 29.375C28.1055 29.7383 28.5273 29.9766 29.0781 29.9766C29.6484 29.9766 30 29.7344 30 29.3828V29.3789C30 29.0586 29.75 28.9102 29.0898 28.7812L28.5117 28.6719C27.3945 28.4648 26.8047 27.9141 26.8047 27.0508V27.0469C26.8047 25.9609 27.7461 25.2617 29.0391 25.2617C30.4531 25.2617 31.2539 25.9258 31.3047 26.9492L31.3086 27.0312H29.9766L29.9727 26.9883C29.9297 26.6172 29.5664 26.3867 29.0508 26.3867C28.5234 26.3867 28.2266 26.625 28.2266 26.9492V26.9531C28.2266 27.2578 28.4922 27.418 29.0977 27.5312L29.6758 27.6406C30.8711 27.8711 31.4258 28.3555 31.4258 29.2578V29.2617C31.4258 30.3867 30.543 31.1016 29.0508 31.1016Z"
        fill="url(#paint1_linear_18_2683)" />
    <path d="M17 21H30" stroke="#66CC6B" stroke-width="1.5" stroke-linecap="round" />
    <path d="M17 18H30" stroke="#66CC6B" stroke-width="1.5" stroke-linecap="round" />
    <path d="M17 15L23.8571 15" stroke="#66CC6B" stroke-width="1.5" stroke-linecap="round" />
    <path d="M29.7617 13.3896C28.5733 13.3896 27.6094 12.4258 27.6094 11.2373V6L35 13.3896H29.7617Z"
        fill="#66CC6B" />
    <defs>
        <linearGradient id="paint0_linear_18_2683" x1="13" y1="6.00433" x2="35.6367" y2="35.5159"
            gradientUnits="userSpaceOnUse">
            <stop stop-color="#4DBF52" />
            <stop offset="1" stop-color="#388E3C" />
        </linearGradient>
        <linearGradient id="paint1_linear_18_2683" x1="16" y1="23" x2="20.8889" y2="36.9062"
            gradientUnits="userSpaceOnUse">
            <stop stop-color="#4DBF52" />
            <stop offset="1" stop-color="#388E3C" />
        </linearGradient>
    </defs>
</svg>
