<svg width="44" height="44" viewBox="0 0 44 44" fill="none" xmlns="http://www.w3.org/2000/svg">
    <rect x="5" y="19" width="34" height="20" rx="4" fill="#F03E3D" />
    <rect x="5.5" y="19.5" width="33" height="19" rx="3.5" stroke="black" stroke-opacity="0.15" />
    <mask id="path-4-inside-1_9_1332" fill="white">
        <path
            d="M34 12.9521V34C34 36.209 32.209 37.9998 30 38H14C11.7909 38 10 36.2091 10 34V10C10 7.79086 11.7909 6 14 6H27.0479L34 12.9521Z" />
    </mask>
    <path
        d="M34 12.9521V34C34 36.209 32.209 37.9998 30 38H14C11.7909 38 10 36.2091 10 34V10C10 7.79086 11.7909 6 14 6H27.0479L34 12.9521Z"
        fill="white" />
    <path
        d="M34 12.9521H35V12.5379L34.7071 12.245L34 12.9521ZM30 38V39H30.0001L30 38ZM14 38L14 39H14V38ZM10 10H9H10ZM14 6V5V6ZM27.0479 6L27.755 5.29289L27.4621 5H27.0479V6ZM34 12.9521H33V34H34H35V12.9521H34ZM34 34H33C33 35.6567 31.6568 36.9999 29.9999 37L30 38L30.0001 39C32.7612 38.9998 35 36.7614 35 34H34ZM30 38V37H14V38V39H30V38ZM14 38L14 37C12.3431 37 11 35.6569 11 34H10H9C9 36.7614 11.2386 39 14 39L14 38ZM10 34H11V10H10H9V34H10ZM10 10H11C11 8.34315 12.3431 7 14 7V6V5C11.2386 5 9 7.23858 9 10H10ZM14 6V7H27.0479V6V5H14V6ZM27.0479 6L26.3407 6.70711L33.2929 13.6593L34 12.9521L34.7071 12.245L27.755 5.29289L27.0479 6Z"
        fill="#FA8F8E" mask="url(#path-4-inside-1_9_1332)" />
    <path
        d="M28.502 13.5488C27.3103 13.5488 26.3438 12.5823 26.3438 11.3906V6.54688L33.3447 13.5488H28.502Z"
        fill="#FA8F8E" />
    <path fill-rule="evenodd" clip-rule="evenodd"
        d="M18.0623 16.8651V15.6666C18.0623 13.492 19.8252 11.7291 21.9998 11.7291C24.1745 11.7291 25.9373 13.492 25.9373 15.6666V16.8651C26.5876 16.9137 27.0111 17.0363 27.3206 17.3459C27.8332 17.8584 27.8332 18.6834 27.8332 20.3333C27.8332 21.9832 27.8332 22.8082 27.3206 23.3207C26.808 23.8333 25.9831 23.8333 24.3332 23.8333H19.6665C18.0166 23.8333 17.1916 23.8333 16.6791 23.3207C16.1665 22.8082 16.1665 21.9832 16.1665 20.3333C16.1665 18.6834 16.1665 17.8584 16.6791 17.3459C16.9886 17.0363 17.4121 16.9137 18.0623 16.8651ZM18.9373 15.6666C18.9373 13.9753 20.3085 12.6041 21.9998 12.6041C23.6912 12.6041 25.0623 13.9753 25.0623 15.6666V16.8354C24.8389 16.8333 24.5966 16.8333 24.3332 16.8333H19.6665C19.4031 16.8333 19.1608 16.8333 18.9373 16.8354V15.6666Z"
        fill="#F03E3D" />
    <mask id="path-8-inside-2_9_1332" fill="white">
        <path
            d="M39 35C39 37.2091 37.2091 39 35 39H8C11.3137 39 14 36.3137 14 33V30C14 27.7909 15.7909 26 18 26H35C37.2091 26 39 27.7909 39 30V35Z" />
    </mask>
    <path
        d="M39 35C39 37.2091 37.2091 39 35 39H8C11.3137 39 14 36.3137 14 33V30C14 27.7909 15.7909 26 18 26H35C37.2091 26 39 27.7909 39 30V35Z"
        fill="#F03E3D" />
    <path
        d="M35 39V38H8V39V40H35V39ZM8 39L8 40C11.866 40 15 36.866 15 33H14H13C13 35.7614 10.7614 38 8 38L8 39ZM14 33H15V30H14H13V33H14ZM18 26V27H35V26V25H18V26ZM39 30H38V35H39H40V30H39ZM35 26V27C36.6569 27 38 28.3431 38 30H39H40C40 27.2386 37.7614 25 35 25V26ZM14 30H15C15 28.3431 16.3431 27 18 27V26V25C15.2386 25 13 27.2386 13 30H14ZM35 39V40C37.7614 40 40 37.7614 40 35H39H38C38 36.6569 36.6569 38 35 38V39Z"
        fill="black" fill-opacity="0.15" mask="url(#path-8-inside-2_9_1332)" />
    <path
        d="M18.3921 36V29.6587H21.0947C22.5098 29.6587 23.4238 30.5464 23.4238 31.9043V31.9131C23.4238 33.271 22.5098 34.1411 21.0947 34.1411H20.0049V36H18.3921ZM20.708 30.8936H20.0049V32.9282H20.708C21.3892 32.9282 21.7935 32.5723 21.7935 31.9131V31.9043C21.7935 31.2451 21.3892 30.8936 20.708 30.8936ZM24.1401 36V29.6587H26.7153C28.627 29.6587 29.7563 30.7661 29.7563 32.7832V32.792C29.7563 34.8179 28.627 36 26.7153 36H24.1401ZM25.7529 34.6992H26.5044C27.5547 34.6992 28.1172 34.062 28.1172 32.7964V32.7876C28.1172 31.6011 27.5195 30.9595 26.5044 30.9595H25.7529V34.6992ZM30.5386 36V29.6587H34.854V30.9551H32.1514V32.4009H34.6079V33.6357H32.1514V36H30.5386Z"
        fill="white" />
</svg>
