<svg width="44" height="44" viewBox="0 0 44 44" fill="none" xmlns="http://www.w3.org/2000/svg">
    <path
        d="M29.4601 13.2684L32.7912 31.5802C33.1865 33.7537 31.7451 35.8361 29.5716 36.2315L17.7654 38.3791C14.5052 38.9722 11.3815 36.81 10.7884 33.5498L7.20904 13.8727C6.81367 11.6993 8.25511 9.61681 10.4286 9.22144L20.8695 7.32217L29.4601 13.2684Z"
        fill="#F2A179" fill-opacity="0.3" />
    <path
        d="M10.5181 9.71337L20.7553 7.85115L29.0053 13.5616L32.2992 31.6697C32.6452 33.5715 31.3839 35.3936 29.4821 35.7396L17.6759 37.8872C14.6874 38.4308 11.824 36.4489 11.2803 33.4603L7.70097 13.7833C7.36581 11.9408 8.53927 10.1734 10.3422 9.75033L10.5181 9.71337Z"
        stroke="#F2A179" stroke-opacity="0.5" />
    <mask id="path-4-inside-1_18_2698" fill="white">
        <path
            d="M35 13.392V32.0043C35 34.2135 33.2091 36.0043 31 36.0043H17C14.7909 36.0043 13 34.2135 13 32.0043V10.0043C13 7.79519 14.7909 6.00433 17 6.00433H27.6123L35 13.392Z" />
    </mask>
    <path
        d="M35 13.392V32.0043C35 34.2135 33.2091 36.0043 31 36.0043H17C14.7909 36.0043 13 34.2135 13 32.0043V10.0043C13 7.79519 14.7909 6.00433 17 6.00433H27.6123L35 13.392Z"
        fill="white" />
    <path
        d="M35 13.392H36V12.9778L35.7071 12.6849L35 13.392ZM31 36.0043V37.0043V36.0043ZM17 36.0043V37.0043V36.0043ZM13 32.0043H12H13ZM17 6.00433V5.00433V6.00433ZM27.6123 6.00433L28.3194 5.29723L28.0265 5.00433H27.6123V6.00433ZM35 13.392H34V32.0043H35H36V13.392H35ZM35 32.0043H34C34 33.6612 32.6569 35.0043 31 35.0043V36.0043V37.0043C33.7614 37.0043 36 34.7658 36 32.0043H35ZM31 36.0043V35.0043H17V36.0043V37.0043H31V36.0043ZM17 36.0043V35.0043C15.3431 35.0043 14 33.6612 14 32.0043H13H12C12 34.7658 14.2386 37.0043 17 37.0043V36.0043ZM13 32.0043H14V10.0043H13H12V32.0043H13ZM13 10.0043H14C14 8.34748 15.3431 7.00433 17 7.00433V6.00433V5.00433C14.2386 5.00433 12 7.24291 12 10.0043H13ZM17 6.00433V7.00433H27.6123V6.00433V5.00433H17V6.00433ZM27.6123 6.00433L26.9052 6.71144L34.2929 14.0991L35 13.392L35.7071 12.6849L28.3194 5.29723L27.6123 6.00433Z"
        fill="url(#paint0_linear_18_2698)" mask="url(#path-4-inside-1_18_2698)" />
    <path
        d="M16.8672 31V25.3633H19.2695C20.5273 25.3633 21.3398 26.1523 21.3398 27.3594V27.3672C21.3398 28.5742 20.5273 29.3477 19.2695 29.3477H18.3008V31H16.8672ZM18.9258 26.4609H18.3008V28.2695H18.9258C19.5312 28.2695 19.8906 27.9531 19.8906 27.3672V27.3594C19.8906 26.7734 19.5312 26.4609 18.9258 26.4609ZM21.9766 31V25.3633H24.3789C25.6367 25.3633 26.4492 26.1523 26.4492 27.3594V27.3672C26.4492 28.5742 25.6367 29.3477 24.3789 29.3477H23.4102V31H21.9766ZM24.0352 26.4609H23.4102V28.2695H24.0352C24.6406 28.2695 25 27.9531 25 27.3672V27.3594C25 26.7734 24.6406 26.4609 24.0352 26.4609ZM28.3945 31V26.5156H26.8398V25.3633H31.3789V26.5156H29.8242V31H28.3945Z"
        fill="url(#paint1_linear_18_2698)" />
    <path d="M17 21H30" stroke="#F2A179" stroke-width="1.5" stroke-linecap="round" />
    <path d="M17 18H30" stroke="#F2A179" stroke-width="1.5" stroke-linecap="round" />
    <path d="M17 15L23.8571 15" stroke="#F2A179" stroke-width="1.5" stroke-linecap="round" />
    <path d="M29.7617 13.3896C28.5733 13.3896 27.6094 12.4258 27.6094 11.2373V6L35 13.3896H29.7617Z"
        fill="#F2A179" />
    <defs>
        <linearGradient id="paint0_linear_18_2698" x1="13" y1="6.00433" x2="35.6367" y2="35.5159"
            gradientUnits="userSpaceOnUse">
            <stop stop-color="#FF9159" />
            <stop offset="1" stop-color="#F2590C" />
        </linearGradient>
        <linearGradient id="paint1_linear_18_2698" x1="16" y1="23" x2="20.8889" y2="36.9062"
            gradientUnits="userSpaceOnUse">
            <stop stop-color="#FF9159" />
            <stop offset="1" stop-color="#F2590C" />
        </linearGradient>
    </defs>
</svg>
