<svg width="60" height="60" viewBox="0 0 60 60" fill="none" xmlns="http://www.w3.org/2000/svg">
    <rect width="60" height="60" rx="30" fill="#D90000" />
    <rect x="0.5" y="0.5" width="59" height="59" rx="29.5" stroke="white" stroke-opacity="0.25" />
    <g clip-path="url(#clip0_97_2667)">
        <path
            d="M42.8334 25.3333C42.1894 25.3333 41.6667 24.8118 41.6667 24.1667V19.5C41.6667 18.856 41.1429 18.3333 40.5001 18.3333H35.8334C35.1894 18.3333 34.6667 17.8118 34.6667 17.1667C34.6667 16.5215 35.1894 16 35.8334 16H40.5001C42.4297 16 44.0001 17.5703 44.0001 19.5V24.1667C44.0001 24.8118 43.4774 25.3333 42.8334 25.3333Z"
            fill="white" />
        <path
            d="M40.5001 44H35.8334C35.1894 44 34.6667 43.4785 34.6667 42.8333C34.6667 42.1881 35.1894 41.6666 35.8334 41.6666H40.5001C41.1429 41.6666 41.6667 41.144 41.6667 40.5V35.8333C41.6667 35.1881 42.1894 34.6666 42.8334 34.6666C43.4774 34.6666 44.0001 35.1881 44.0001 35.8333V40.5C44.0001 42.4296 42.4297 44 40.5001 44Z"
            fill="white" />
        <path
            d="M24.1667 44H19.5C17.5703 44 16 42.4296 16 40.5V35.8333C16 35.1881 16.5227 34.6666 17.1667 34.6666C17.8107 34.6666 18.3333 35.1881 18.3333 35.8333V40.5C18.3333 41.144 18.8572 41.6666 19.5 41.6666H24.1667C24.8107 41.6666 25.3333 42.1881 25.3333 42.8333C25.3333 43.4785 24.8107 44 24.1667 44Z"
            fill="white" />
        <path
            d="M17.1667 25.3333C16.5227 25.3333 16 24.8118 16 24.1667V19.5C16 17.5703 17.5703 16 19.5 16H24.1667C24.8107 16 25.3333 16.5215 25.3333 17.1667C25.3333 17.8118 24.8107 18.3333 24.1667 18.3333H19.5C18.8572 18.3333 18.3333 18.856 18.3333 19.5V24.1667C18.3333 24.8118 17.8107 25.3333 17.1667 25.3333Z"
            fill="white" />
        <path
            d="M36.9999 28.8334C36.3559 28.8334 35.8333 28.3119 35.8333 27.6667V24.1667H24.1666V27.6667C24.1666 28.3119 23.6439 28.8334 22.9999 28.8334C22.3559 28.8334 21.8333 28.3119 21.8333 27.6667V24.1667C21.8333 22.8799 22.8798 21.8334 24.1666 21.8334H35.8333C37.1201 21.8334 38.1666 22.8799 38.1666 24.1667V27.6667C38.1666 28.3119 37.6439 28.8334 36.9999 28.8334Z"
            fill="white" />
        <path
            d="M40.5 32.3333C40.5 32.9785 39.9773 33.5 39.3333 33.5H38.1667V35.8333C38.1667 37.1201 37.1202 38.1666 35.8333 38.1666H24.1667C22.8798 38.1666 21.8333 37.1201 21.8333 35.8333V33.5H20.6667C20.0227 33.5 19.5 32.9785 19.5 32.3333C19.5 31.6881 20.0227 31.1666 20.6667 31.1666H39.3333C39.9773 31.1666 40.5 31.6881 40.5 32.3333Z"
            fill="white" />
    </g>
    <defs>
        <clipPath id="clip0_97_2667">
            <rect width="28" height="28" fill="white" transform="translate(16 16)" />
        </clipPath>
    </defs>
</svg>
