<svg width="24" height="24" viewBox="0 0 24 24" fill="none" xmlns="http://www.w3.org/2000/svg">
    <g clip-path="url(#clip0_37_8376)">
        <path
            d="M15.6525 8.45512L16.3013 7.80631C17.3763 6.73131 19.1193 6.73131 20.1942 7.80631C21.2692 8.8813 21.2692 10.6242 20.1942 11.6992L19.5454 12.348M15.6525 8.45512C15.6525 8.45512 15.7336 9.83385 16.9502 11.0504C18.1667 12.2669 19.5454 12.348 19.5454 12.348M15.6525 8.45512L9.68767 14.42C9.28365 14.824 9.08164 15.026 8.90792 15.2487C8.70298 15.5115 8.52728 15.7958 8.38393 16.0966C8.2624 16.3516 8.17206 16.6226 7.99138 17.1646L7.22575 19.4615M19.5454 12.348L13.5806 18.3129C13.1765 18.7169 12.9745 18.9189 12.7518 19.0926C12.4891 19.2976 12.2048 19.4733 11.904 19.6166C11.649 19.7381 11.378 19.8285 10.8359 20.0092L8.53903 20.7748M8.53903 20.7748L7.97758 20.9619C7.71083 21.0509 7.41675 20.9814 7.21793 20.7826C7.01911 20.5838 6.94969 20.2897 7.0386 20.023L7.22575 19.4615M8.53903 20.7748L7.22575 19.4615"
            stroke="#404040" stroke-width="1.5" />
        <path d="M7.99983 7.00006C5.99983 12.0001 -0.000169039 15.5001 5.49983 19.0001"
            stroke="#404040" stroke-width="1.5" />
        <path d="M3.5 1.00006C4 1.00006 10 2.00006 8 7.00006" stroke="#404040" stroke-width="1.5" />
    </g>
    <defs>
        <clipPath id="clip0_37_8376">
            <rect width="24" height="24" fill="white" />
        </clipPath>
    </defs>
</svg>
