<svg width="24" height="24" viewBox="0 0 24 24" fill="none" xmlns="http://www.w3.org/2000/svg">
    <path
        d="M9.25033 10.8542C7.85699 10.8542 6.72949 9.72667 6.72949 8.33333C6.72949 6.94 7.85699 5.8125 9.25033 5.8125C10.6437 5.8125 11.7712 6.94 11.7712 8.33333C11.7712 9.72667 10.6437 10.8542 9.25033 10.8542ZM9.25033 7.1875C8.61783 7.1875 8.10449 7.70083 8.10449 8.33333C8.10449 8.96583 8.61783 9.47917 9.25033 9.47917C9.88283 9.47917 10.3962 8.96583 10.3962 8.33333C10.3962 7.70083 9.88283 7.1875 9.25033 7.1875Z"
        fill="#222222" />
    <path
        d="M14.7497 21.8541H9.24967C4.27217 21.8541 2.14551 19.7275 2.14551 14.75V9.24998C2.14551 4.27248 4.27217 2.14581 9.24967 2.14581H12.9163C13.2922 2.14581 13.6038 2.45748 13.6038 2.83331C13.6038 3.20915 13.2922 3.52081 12.9163 3.52081H9.24967C5.02384 3.52081 3.52051 5.02415 3.52051 9.24998V14.75C3.52051 18.9758 5.02384 20.4791 9.24967 20.4791H14.7497C18.9755 20.4791 20.4788 18.9758 20.4788 14.75V10.1666C20.4788 9.79081 20.7905 9.47915 21.1663 9.47915C21.5422 9.47915 21.8538 9.79081 21.8538 10.1666V14.75C21.8538 19.7275 19.7272 21.8541 14.7497 21.8541Z"
        fill="#222222" />
    <path
        d="M20.4792 6.27081H15.4375C15.0617 6.27081 14.75 5.95915 14.75 5.58331C14.75 5.20748 15.0617 4.89581 15.4375 4.89581H20.4792C20.855 4.89581 21.1667 5.20748 21.1667 5.58331C21.1667 5.95915 20.855 6.27081 20.4792 6.27081Z"
        fill="#E52120" />
    <path
        d="M17.958 8.79167C17.5822 8.79167 17.2705 8.48 17.2705 8.10417V3.0625C17.2705 2.68667 17.5822 2.375 17.958 2.375C18.3338 2.375 18.6455 2.68667 18.6455 3.0625V8.10417C18.6455 8.48 18.3338 8.79167 17.958 8.79167Z"
        fill="#E52120" />
    <path
        d="M3.44687 19.0584C3.22687 19.0584 3.00687 18.9484 2.87854 18.7559C2.66771 18.4442 2.75021 18.0134 3.06187 17.8025L7.58104 14.7684C8.57104 14.1084 9.93687 14.1817 10.8352 14.9425L11.1377 15.2084C11.596 15.6025 12.3752 15.6025 12.8244 15.2084L16.6377 11.9359C17.6185 11.1017 19.1402 11.1017 20.121 11.9359L21.6152 13.2192C21.8994 13.4667 21.936 13.8975 21.6885 14.1909C21.441 14.475 21.0102 14.5117 20.7169 14.2642L19.2227 12.9809C18.7644 12.5867 17.9852 12.5867 17.536 12.9809L13.7227 16.2534C12.751 17.0875 11.2202 17.0875 10.2394 16.2534L9.93687 15.9875C9.51521 15.63 8.81854 15.5934 8.35104 15.9142L3.84104 18.9484C3.71271 19.0217 3.57521 19.0584 3.44687 19.0584Z"
        fill="#222222" />
</svg>
