<svg width="24" height="25" viewBox="0 0 24 25" fill="none" xmlns="http://www.w3.org/2000/svg">
    <path
        d="M2 16.5001C2 13.6716 2 12.2574 2.87868 11.3787C3.75736 10.5001 5.17157 10.5001 8 10.5001H16C18.8284 10.5001 20.2426 10.5001 21.1213 11.3787C22 12.2574 22 13.6716 22 16.5001C22 19.3285 22 20.7427 21.1213 21.6214C20.2426 22.5001 18.8284 22.5001 16 22.5001H8C5.17157 22.5001 3.75736 22.5001 2.87868 21.6214C2 20.7427 2 19.3285 2 16.5001Z"
        stroke="#404040" stroke-width="1.5" />
    <path
        d="M6 10.5001V8.50006C6 5.18635 8.68629 2.50006 12 2.50006C15.3137 2.50006 18 5.18635 18 8.50006V10.5001"
        stroke="#404040" stroke-width="1.5" stroke-linecap="round" />
    <path d="M8 16.5001H8.009M11.991 16.5001H12M15.991 16.5001H16" stroke="#D90000" stroke-width="2"
        stroke-linecap="round" stroke-linejoin="round" />
</svg>
