<svg width="24" height="24" viewBox="0 0 24 24" fill="none" xmlns="http://www.w3.org/2000/svg">
    <path fill-rule="evenodd" clip-rule="evenodd"
        d="M20.75 8.41409C20.75 7.95009 20.566 7.50509 20.237 7.17709C19.219 6.15909 15.841 2.78109 14.823 1.76309C14.495 1.43409 14.05 1.25009 13.586 1.25009C12.316 1.25009 8.416 1.25009 6 1.25009C5.271 1.25009 4.571 1.54009 4.055 2.05509C3.54 2.57109 3.25 3.27109 3.25 4.00009V20.0001C3.25 20.7291 3.54 21.4291 4.055 21.9451C4.571 22.4601 5.271 22.7501 6 22.7501H18C19.519 22.7501 20.75 21.5191 20.75 20.0001V8.41409ZM19.25 8.41409V20.0001C19.25 20.6901 18.69 21.2501 18 21.2501H6C5.668 21.2501 5.351 21.1181 5.116 20.8841C4.882 20.6491 4.75 20.3321 4.75 20.0001V4.00009C4.75 3.66809 4.882 3.35109 5.116 3.11609C5.351 2.88209 5.668 2.75009 6 2.75009H13.586C13.652 2.75009 13.716 2.77609 13.763 2.82309L19.177 8.23709C19.224 8.28409 19.25 8.34809 19.25 8.41409Z"
        fill="#404040" />
    <path fill-rule="evenodd" clip-rule="evenodd"
        d="M13.25 2.50009V6.00009C13.25 7.51909 14.481 8.75009 16 8.75009H19.5C19.914 8.75009 20.25 8.41409 20.25 8.00009C20.25 7.58609 19.914 7.25009 19.5 7.25009H16C15.31 7.25009 14.75 6.69009 14.75 6.00009V2.50009C14.75 2.08609 14.414 1.75009 14 1.75009C13.586 1.75009 13.25 2.08609 13.25 2.50009Z"
        fill="#404040" />
    <path fill-rule="evenodd" clip-rule="evenodd"
        d="M10.53 18.5301L12 17.0611L13.47 18.5301C13.762 18.8231 14.238 18.8231 14.53 18.5301C14.823 18.2381 14.823 17.7621 14.53 17.4701L12.53 15.4701C12.237 15.1771 11.763 15.1771 11.47 15.4701L9.46999 17.4701C9.17699 17.7621 9.17699 18.2381 9.46999 18.5301C9.76199 18.8231 10.238 18.8231 10.53 18.5301Z"
        fill="#E52120" />
    <path fill-rule="evenodd" clip-rule="evenodd"
        d="M9.46999 10.5301L11.47 12.5301C11.763 12.8231 12.237 12.8231 12.53 12.5301L14.53 10.5301C14.823 10.2381 14.823 9.76209 14.53 9.47009C14.238 9.17709 13.762 9.17709 13.47 9.47009L12 10.9391L10.53 9.47009C10.238 9.17709 9.76199 9.17709 9.46999 9.47009C9.17699 9.76209 9.17699 10.2381 9.46999 10.5301Z"
        fill="#E52120" />
    <path fill-rule="evenodd" clip-rule="evenodd"
        d="M4 14.7501H20C20.414 14.7501 20.75 14.4141 20.75 14.0001C20.75 13.5861 20.414 13.2501 20 13.2501H4C3.586 13.2501 3.25 13.5861 3.25 14.0001C3.25 14.4141 3.586 14.7501 4 14.7501Z"
        fill="#404040" />
</svg>
