<svg width="24" height="24" viewBox="0 0 24 24" fill="none" xmlns="http://www.w3.org/2000/svg">
    <path
        d="M5.17157 20.8284C6.34315 22 8.22876 22 12 22H14C17.7712 22 19.6569 22 20.8284 20.8284C22 19.6569 22 17.7712 22 14V10C22 6.22876 22 4.34315 20.8284 3.17157C19.6569 2 17.7712 2 14 2H12C8.22876 2 6.34315 2 5.17157 3.17157C4.22849 4.11466 4.04456 5.52043 4.00869 8"
        stroke="#404040" stroke-width="1.5" stroke-linecap="round" />
    <path d="M17 11H14.5" stroke="#404040" stroke-width="1.5" stroke-linecap="round" />
    <path d="M17 7H10.5" stroke="#404040" stroke-width="1.5" stroke-linecap="round" />
    <path d="M17 15H15.5" stroke="#404040" stroke-width="1.5" stroke-linecap="round" />
    <path d="M8.5 12L11 14.5M11 14.5L8.5 17M11 14.5L3 14.5" stroke="#D90000" stroke-width="1.5"
        stroke-linecap="round" stroke-linejoin="round" />
</svg>
