<svg width="24" height="25" viewBox="0 0 24 25" fill="none" xmlns="http://www.w3.org/2000/svg">
    <path
        d="M6.5 9.50006C7.32843 9.50006 8 8.82849 8 8.00006C8 7.17163 7.32843 6.50006 6.5 6.50006C5.67157 6.50006 5 7.17163 5 8.00006C5 8.82849 5.67157 9.50006 6.5 9.50006Z"
        stroke="#D90000" stroke-width="1.5" stroke-linecap="round" stroke-linejoin="round" />
    <path
        d="M2 14.5001L5.57062 12.5957C6.14278 12.2908 6.96844 12.3253 7.48267 12.6763L7.72168 12.8431C8.2866 13.2286 9.19917 13.2286 9.7641 12.8431L12.777 10.7892C13.342 10.4037 14.2545 10.4037 14.8195 10.7892L16 11.5946"
        stroke="#D90000" stroke-width="1.5" stroke-linecap="round" stroke-linejoin="round" />
    <path
        d="M22 19.0826L22 18.0001C22 16.4201 21 15.4201 19.42 15.4201L16 15.4201L16 21.0726C16 22.1826 16.91 23.0826 18.02 23.0826C19.11 23.0726 20.11 22.6326 20.83 21.9126C21.55 21.1826 22 20.1826 22 19.0826Z"
        stroke="#292D32" stroke-width="1.5" stroke-miterlimit="10" stroke-linecap="round"
        stroke-linejoin="round" />
    <path
        d="M2 18.0826L2 4.60004C2 3.71639 2.71633 3.00006 3.59997 3.00006V3.00006L5.31 3.00006C6 3.00006 6 3.00006 6.63 3.00006L8.28998 3.00006C9 3.00006 9 3.00006 9.71002 3.00006L11.39 3.00006C12 3.00006 12.5 3.00006 12.69 3.00006L14.4 3.00006V3.00006C15.2837 3.00006 16 3.71639 16 4.60004L16 21.0826C16 22.1826 16.9 23.0826 18 23.0826L7 23.0826L6 23.0826C3 23.0826 2 21.2926 2 19.0826L2 18.0826Z"
        stroke="#292D32" stroke-width="1.5" stroke-miterlimit="10" stroke-linecap="round"
        stroke-linejoin="round" />
</svg>
