<svg width="24" height="25" viewBox="0 0 24 25" fill="none" xmlns="http://www.w3.org/2000/svg">
    <path
        d="M9 10.5001C10.1046 10.5001 11 9.60463 11 8.50006C11 7.39549 10.1046 6.50006 9 6.50006C7.89543 6.50006 7 7.39549 7 8.50006C7 9.60463 7.89543 10.5001 9 10.5001Z"
        stroke="#D90000" stroke-width="1.5" stroke-linecap="round" stroke-linejoin="round" />
    <path
        d="M2.66992 19.4501L7.59992 16.1401C8.38992 15.6101 9.52992 15.6701 10.2399 16.2801L10.5699 16.5701C11.3499 17.2401 12.6099 17.2401 13.3899 16.5701L17.5499 13.0001C18.3299 12.3301 19.5899 12.3301 20.3699 13.0001L21.9999 14.4001"
        stroke="#D90000" stroke-width="1.5" stroke-linecap="round" stroke-linejoin="round" />
    <path
        d="M9 22.5001H15C20 22.5001 22 20.5001 22 15.5001V9.50006C22 4.50006 20 2.50006 15 2.50006H9C4 2.50006 2 4.50006 2 9.50006V15.5001C2 20.5001 4 22.5001 9 22.5001Z"
        stroke="#404040" stroke-width="1.5" stroke-linecap="round" stroke-linejoin="round" />
</svg>
