<svg width="20" height="20" viewBox="0 0 20 20" fill="none" xmlns="http://www.w3.org/2000/svg">
    <path
        d="M6.875 12.9167C6.875 13.2619 7.15482 13.5417 7.5 13.5417C7.84518 13.5417 8.125 13.2619 8.125 12.9167H7.5H6.875ZM9.72021 7.29378L10.1354 6.82659L10.1354 6.82659L9.72021 7.29378ZM9.375 8.68754C9.375 9.03272 9.65482 9.31254 10 9.31254C10.3452 9.31254 10.625 9.03272 10.625 8.68754H10H9.375ZM9.78959 7.36316L10.2568 6.94801L10.2568 6.948L9.78959 7.36316ZM5.27979 7.29378L4.86463 6.82659L4.86463 6.82659L5.27979 7.29378ZM4.375 8.68754C4.375 9.03272 4.65482 9.31254 5 9.31254C5.34518 9.31254 5.625 9.03272 5.625 8.68754H5H4.375ZM5.21041 7.36316L4.74322 6.94801L4.74322 6.94801L5.21041 7.36316ZM5.83333 12.2917C5.48816 12.2917 5.20833 12.5715 5.20833 12.9167C5.20833 13.2619 5.48816 13.5417 5.83333 13.5417V12.9167V12.2917ZM9.16667 13.5417C9.51184 13.5417 9.79167 13.2619 9.79167 12.9167C9.79167 12.5715 9.51184 12.2917 9.16667 12.2917V12.9167V13.5417ZM6.60417 7.08337V7.70837H7.5V7.08337V6.45837H6.60417V7.08337ZM7.5 7.08337V7.70837H8.39583V7.08337V6.45837H7.5V7.08337ZM7.5 12.9167H8.125V7.08337H7.5H6.875V12.9167H7.5ZM8.39583 7.08337V7.70837C8.77461 7.70837 9.00058 7.70951 9.16377 7.72987C9.3116 7.74831 9.31928 7.77362 9.30505 7.76098L9.72021 7.29378L10.1354 6.82659C9.88435 6.60353 9.59238 6.52364 9.31848 6.48948C9.05995 6.45723 8.74212 6.45837 8.39583 6.45837V7.08337ZM10 8.68754H10.625C10.625 8.34125 10.6261 8.02342 10.5939 7.76489C10.5597 7.49099 10.4798 7.19902 10.2568 6.94801L9.78959 7.36316L9.3224 7.77832C9.30975 7.76409 9.33507 7.77177 9.3535 7.9196C9.37386 8.0828 9.375 8.30876 9.375 8.68754H10ZM9.72021 7.29378L9.30505 7.76098C9.31117 7.76641 9.31696 7.7722 9.3224 7.77832L9.78959 7.36316L10.2568 6.948C10.2187 6.90519 10.1782 6.86464 10.1354 6.82659L9.72021 7.29378ZM6.60417 7.08337V6.45837C6.25788 6.45837 5.94005 6.45723 5.68152 6.48948C5.40762 6.52364 5.11565 6.60353 4.86463 6.82659L5.27979 7.29378L5.69495 7.76098C5.68072 7.77362 5.6884 7.74831 5.83623 7.72987C5.99942 7.70951 6.22539 7.70837 6.60417 7.70837V7.08337ZM5 8.68754H5.625C5.625 8.30876 5.62614 8.0828 5.6465 7.9196C5.66493 7.77177 5.69025 7.76409 5.6776 7.77832L5.21041 7.36316L4.74322 6.94801C4.52016 7.19902 4.44027 7.491 4.40611 7.76489C4.37386 8.02342 4.375 8.34125 4.375 8.68754H5ZM5.27979 7.29378L4.86463 6.82659C4.82181 6.86464 4.78127 6.90518 4.74322 6.94801L5.21041 7.36316L5.6776 7.77832C5.68304 7.7722 5.68883 7.76641 5.69495 7.76098L5.27979 7.29378ZM5.83333 12.9167V13.5417H9.16667V12.9167V12.2917H5.83333V12.9167Z"
        fill="#404040" />
    <path
        d="M10.0001 3.33337H8.33341C5.19072 3.33337 3.61937 3.33337 2.64306 4.30968C1.66675 5.286 1.66675 6.85734 1.66675 10C1.66675 13.1427 1.66675 14.7141 2.64306 15.6904C3.61937 16.6667 5.19072 16.6667 8.33341 16.6667H10.0001M12.5001 3.33415C15.0953 3.34174 16.4712 3.42377 17.3571 4.30968C18.3334 5.286 18.3334 6.85734 18.3334 10C18.3334 13.1427 18.3334 14.7141 17.3571 15.6904C16.4712 16.5763 15.0953 16.6583 12.5001 16.6659"
        stroke="#404040" stroke-width="1.25" stroke-linecap="round" />
    <path d="M12.5 1.66669V18.3334" stroke="#D90000" stroke-width="1.25" stroke-linecap="round" />
</svg>
