<svg width="20" height="20" viewBox="0 0 20 20" fill="none" xmlns="http://www.w3.org/2000/svg">
    <path d="M11.6667 5.41669L7.5 8.33335" stroke="#D90000" stroke-width="1.25"
        stroke-linecap="round" />
    <path d="M11.6667 14.5834L7.5 11.6667" stroke="#D90000" stroke-width="1.25"
        stroke-linecap="round" />
    <path
        d="M15.8334 15.4167C15.8334 16.5673 14.9007 17.5 13.7501 17.5C12.5995 17.5 11.6667 16.5673 11.6667 15.4167C11.6667 14.2661 12.5995 13.3334 13.7501 13.3334C14.9007 13.3334 15.8334 14.2661 15.8334 15.4167Z"
        stroke="#404040" stroke-width="1.25" />
    <path
        d="M7.49992 10C7.49992 11.1506 6.56718 12.0834 5.41659 12.0834C4.26599 12.0834 3.33325 11.1506 3.33325 10C3.33325 8.84943 4.26599 7.91669 5.41659 7.91669C6.56718 7.91669 7.49992 8.84943 7.49992 10Z"
        stroke="#404040" stroke-width="1.25" />
    <path
        d="M15.8334 4.58336C15.8334 5.73396 14.9007 6.6667 13.7501 6.6667C12.5995 6.6667 11.6667 5.73396 11.6667 4.58336C11.6667 3.43277 12.5995 2.50003 13.7501 2.50003C14.9007 2.50003 15.8334 3.43277 15.8334 4.58336Z"
        stroke="#404040" stroke-width="1.25" />
</svg>
