<svg width="24" height="24" viewBox="0 0 24 24" fill="none" xmlns="http://www.w3.org/2000/svg">
    <path fill-rule="evenodd" clip-rule="evenodd"
        d="M16.9722 19.2909C17.4128 18.9313 17.9757 18.625 18.7029 18.625C19.8941 18.625 20.6622 19.4453 21.0976 20.178C21.5417 20.9253 21.7767 21.7903 21.8651 22.3675C21.9382 22.8452 21.6103 23.2918 21.1326 23.3649C20.6549 23.4381 20.2084 23.1101 20.1352 22.6325C20.0705 22.2097 19.892 21.5747 19.5932 21.072C19.2858 20.5547 18.9819 20.375 18.7029 20.375C18.5111 20.375 18.3274 20.4437 18.0788 20.6466C17.8599 20.8252 17.6604 21.0458 17.4007 21.3327C17.3274 21.4137 17.2494 21.4999 17.1647 21.592C16.4443 22.3761 15.4176 23.375 13.6488 23.375C12.8967 23.375 12.3473 23.2932 11.907 23.1587C11.5074 23.0365 11.226 22.877 11.039 22.771C11.0188 22.7595 10.9997 22.7487 10.9816 22.7386C10.8119 22.6436 10.7523 22.6211 10.6538 22.6112C10.5234 22.5981 10.2661 22.6078 9.73478 22.7466C8.69687 23.0177 7.48947 23.0657 6.43959 23.0295C5.38033 22.9929 4.41786 22.868 3.83969 22.7602C3.36464 22.6715 3.05137 22.2146 3.14 21.7395C3.22862 21.2645 3.68557 20.9512 4.16062 21.0398C4.65452 21.132 5.52989 21.2471 6.49992 21.2805C7.47931 21.3143 8.49263 21.2623 9.29256 21.0534C9.90989 20.8922 10.3992 20.8269 10.8287 20.87C11.2903 20.9164 11.6039 21.0814 11.8363 21.2114C11.8571 21.2231 11.8771 21.2343 11.8965 21.2453C12.0798 21.3484 12.2087 21.421 12.4185 21.4851C12.653 21.5568 13.0225 21.625 13.6488 21.625C14.6368 21.625 15.2182 21.1239 15.8761 20.408C15.9331 20.346 15.9928 20.2798 16.0548 20.211C16.3248 19.9116 16.64 19.562 16.9722 19.2909Z"
        fill="#E00000" />
    <path fill-rule="evenodd" clip-rule="evenodd"
        d="M14.7566 2.62145C16.5852 0.792851 19.55 0.792851 21.3786 2.62145C23.2072 4.45005 23.2072 7.41479 21.3786 9.24339L14.8933 15.7287C14.3514 16.2706 14.0323 16.5897 13.6774 16.8665C13.2592 17.1927 12.8066 17.4725 12.3277 17.7007C11.9214 17.8943 11.4933 18.037 10.7662 18.2793L7.43511 19.3897L6.63303 19.6571C5.98247 19.8739 5.26522 19.7046 4.78032 19.2197C4.29542 18.7348 4.1261 18.0175 4.34296 17.367L5.72068 13.2338C5.96303 12.5067 6.10568 12.0787 6.29932 11.6724C6.52755 11.1935 6.80727 10.7409 7.13354 10.3226C7.41035 9.96767 7.72939 9.64865 8.27137 9.10671L14.7566 2.62145ZM20.3179 3.68211C19.0751 2.4393 17.0601 2.4393 15.8173 3.68211L15.1554 4.34404C15.1896 4.519 15.2474 4.75684 15.3438 5.03487C15.561 5.66083 15.9712 6.48288 16.7442 7.25585C17.5171 8.02881 18.3392 8.43903 18.9651 8.6562C19.2432 8.75266 19.481 8.81046 19.656 8.84466L20.3179 8.18272C21.5607 6.93991 21.5607 4.92492 20.3179 3.68211ZM18.4393 10.0614C17.6506 9.78321 16.6346 9.26763 15.6835 8.31651C14.7324 7.36538 14.2168 6.34939 13.9387 5.56075L9.36917 10.1302C8.77951 10.7199 8.52959 10.9716 8.3163 11.2451C8.05704 11.5775 7.83476 11.9371 7.65341 12.3177C7.50421 12.6307 7.3908 12.9669 7.12709 13.758L6.17992 16.5995L7.40051 17.8201L10.242 16.8729C11.0331 16.6092 11.3693 16.4958 11.6823 16.3466C12.0629 16.1653 12.4225 15.943 12.7549 15.6837C13.0284 15.4704 13.2801 15.2205 13.8698 14.6308L18.4393 10.0614Z"
        fill="#404040" />
</svg>
