<svg width="24" height="25" viewBox="0 0 24 25" fill="none" xmlns="http://www.w3.org/2000/svg">
    <path fill-rule="evenodd" clip-rule="evenodd"
        d="M3.25 17.0001V20.5001C3.25 22.0191 4.481 23.2501 6 23.2501H18C19.519 23.2501 20.75 22.0191 20.75 20.5001V17.0001C20.75 16.5861 20.414 16.2501 20 16.2501C19.586 16.2501 19.25 16.5861 19.25 17.0001V20.5001C19.25 21.1901 18.69 21.7501 18 21.7501H6C5.31 21.7501 4.75 21.1901 4.75 20.5001V17.0001C4.75 16.5861 4.414 16.2501 4 16.2501C3.586 16.2501 3.25 16.5861 3.25 17.0001Z"
        fill="#404040" />
    <path fill-rule="evenodd" clip-rule="evenodd"
        d="M20.75 11.0001V8.91406C20.75 8.45006 20.566 8.00506 20.237 7.67706C19.219 6.65906 15.841 3.28106 14.823 2.26306C14.495 1.93406 14.05 1.75006 13.586 1.75006C12.316 1.75006 8.416 1.75006 6 1.75006C4.481 1.75006 3.25 2.98106 3.25 4.50006V11.0001C3.25 11.4141 3.586 11.7501 4 11.7501C4.414 11.7501 4.75 11.4141 4.75 11.0001V4.50006C4.75 3.81006 5.31 3.25006 6 3.25006H13.586C13.652 3.25006 13.716 3.27606 13.763 3.32306L19.177 8.73706C19.224 8.78406 19.25 8.84806 19.25 8.91406V11.0001C19.25 11.4141 19.586 11.7501 20 11.7501C20.414 11.7501 20.75 11.4141 20.75 11.0001Z"
        fill="#404040" />
    <path fill-rule="evenodd" clip-rule="evenodd"
        d="M13.25 3.00006V6.50006C13.25 8.01906 14.481 9.25006 16 9.25006H19.5C19.914 9.25006 20.25 8.91406 20.25 8.50006C20.25 8.08606 19.914 7.75006 19.5 7.75006H16C15.31 7.75006 14.75 7.19006 14.75 6.50006V3.00006C14.75 2.58606 14.414 2.25006 14 2.25006C13.586 2.25006 13.25 2.58606 13.25 3.00006Z"
        fill="#404040" />
    <path fill-rule="evenodd" clip-rule="evenodd"
        d="M21.25 13.2501H20.25C19.836 13.2501 19.5 13.5861 19.5 14.0001C19.5 14.4141 19.836 14.7501 20.25 14.7501H21.25C21.664 14.7501 22 14.4141 22 14.0001C22 13.5861 21.664 13.2501 21.25 13.2501Z"
        fill="#D90000" />
    <path fill-rule="evenodd" clip-rule="evenodd"
        d="M17.75 13.2501H16.75C16.336 13.2501 16 13.5861 16 14.0001C16 14.4141 16.336 14.7501 16.75 14.7501H17.75C18.164 14.7501 18.5 14.4141 18.5 14.0001C18.5 13.5861 18.164 13.2501 17.75 13.2501Z"
        fill="#D90000" />
    <path fill-rule="evenodd" clip-rule="evenodd"
        d="M14.25 13.2501H13.25C12.836 13.2501 12.5 13.5861 12.5 14.0001C12.5 14.4141 12.836 14.7501 13.25 14.7501H14.25C14.664 14.7501 15 14.4141 15 14.0001C15 13.5861 14.664 13.2501 14.25 13.2501Z"
        fill="#D90000" />
    <path fill-rule="evenodd" clip-rule="evenodd"
        d="M10.75 13.2501H9.75C9.336 13.2501 9 13.5861 9 14.0001C9 14.4141 9.336 14.7501 9.75 14.7501H10.75C11.164 14.7501 11.5 14.4141 11.5 14.0001C11.5 13.5861 11.164 13.2501 10.75 13.2501Z"
        fill="#D90000" />
    <path fill-rule="evenodd" clip-rule="evenodd"
        d="M7.25 13.2501H6.25C5.836 13.2501 5.5 13.5861 5.5 14.0001C5.5 14.4141 5.836 14.7501 6.25 14.7501H7.25C7.664 14.7501 8 14.4141 8 14.0001C8 13.5861 7.664 13.2501 7.25 13.2501Z"
        fill="#D90000" />
    <path fill-rule="evenodd" clip-rule="evenodd"
        d="M3.75 13.2501H2.75C2.336 13.2501 2 13.5861 2 14.0001C2 14.4141 2.336 14.7501 2.75 14.7501H3.75C4.164 14.7501 4.5 14.4141 4.5 14.0001C4.5 13.5861 4.164 13.2501 3.75 13.2501Z"
        fill="#D90000" />
</svg>
