<svg width="24" height="24" viewBox="0 0 24 24" fill="none" xmlns="http://www.w3.org/2000/svg">
    <rect x="3.59863" y="4.41998" width="11.0686" height="1.49987" rx="0.749937"
        transform="rotate(48.1735 3.59863 4.41998)" fill="#E52120" />
    <rect x="7.25879" y="2.04022" width="12.8423" height="1.49987" rx="0.749937"
        transform="rotate(48.1735 7.25879 2.04022)" fill="#E52120" />
    <rect x="12.1182" y="2.00104" width="11.3657" height="1.49987" rx="0.749937"
        transform="rotate(48.1735 12.1182 2.00104)" fill="#E52120" />
    <path
        d="M2.58074 19.0095L2.56074 19.0295C2.29076 18.4395 2.12078 17.7696 2.05078 17.0297C2.12078 17.7596 2.31076 18.4195 2.58074 19.0095Z"
        fill="#222222" />
    <path
        d="M16.1898 2.0011H7.81049C4.1708 2.0011 2.00098 4.17092 2.00098 7.81061V16.1899C2.00098 17.2798 2.19096 18.2297 2.56093 19.0297C3.42086 20.9295 5.2607 21.9994 7.81049 21.9994H16.1898C19.8295 21.9994 21.9993 19.8296 21.9993 16.1899V13.9001V7.81061C21.9993 4.17092 19.8295 2.0011 16.1898 2.0011ZM20.3694 12.5002C19.5895 11.8303 18.3296 11.8303 17.5497 12.5002L13.39 16.0699C12.6101 16.7399 11.3502 16.7399 10.5703 16.0699L10.2303 15.7899C9.52035 15.17 8.39044 15.11 7.59051 15.65L3.85082 18.1598C3.63084 17.5998 3.50085 16.9499 3.50085 16.1899V7.81061C3.50085 4.99085 4.99073 3.50097 7.81049 3.50097H16.1898C19.0096 3.50097 20.4994 4.99085 20.4994 7.81061V12.6102L20.3694 12.5002Z"
        fill="#222222" />
</svg>
