<svg width="40" height="40" viewBox="0 0 40 40" fill="none" xmlns="http://www.w3.org/2000/svg">
    <rect width="40" height="40" rx="8.33333" fill="url(#paint0_linear_37_2980)" />
    <path
        d="M5.95839 17.3682L5.9445 17.3821C5.757 16.9723 5.63894 16.5071 5.59033 15.9932C5.63894 16.5001 5.77089 16.9584 5.95839 17.3682Z"
        fill="white" />
    <path
        d="M10.4169 11.3749C11.3297 11.3749 12.0697 10.6349 12.0697 9.72211C12.0697 8.80931 11.3297 8.06934 10.4169 8.06934C9.50413 8.06934 8.76416 8.80931 8.76416 9.72211C8.76416 10.6349 9.50413 11.3749 10.4169 11.3749Z"
        fill="white" />
    <path
        d="M15.4098 5.55566H9.59039C7.06261 5.55566 5.55566 7.06261 5.55566 9.59039V15.4098C5.55566 16.1668 5.68761 16.8265 5.94455 17.3821C6.54178 18.7015 7.81955 19.4446 9.59039 19.4446H15.4098C17.9376 19.4446 19.4446 17.9376 19.4446 15.4098V13.8196V9.59039C19.4446 7.06261 17.9376 5.55566 15.4098 5.55566ZM18.3126 12.8473C17.7709 12.3821 16.8959 12.3821 16.3543 12.8473L13.4654 15.3265C12.9237 15.7918 12.0487 15.7918 11.5071 15.3265L11.2709 15.1321C10.7779 14.7015 9.99316 14.6598 9.43761 15.0348L6.84039 16.7779C6.68761 16.389 6.59733 15.9376 6.59733 15.4098V9.59039C6.59733 7.63205 7.63205 6.59733 9.59039 6.59733H15.4098C17.3682 6.59733 18.4029 7.63205 18.4029 9.59039V12.9237L18.3126 12.8473Z"
        fill="white" />
    <path
        d="M33.4028 26.2432H31.3959C29.7501 26.2432 28.4098 24.9029 28.4098 23.2571V21.2501C28.4098 20.8682 28.0973 20.5557 27.7153 20.5557H24.7709C22.632 20.5557 20.9028 21.9446 20.9028 24.4237V30.5765C20.9028 33.0557 22.632 34.4446 24.7709 34.4446H30.2292C32.3681 34.4446 34.0973 33.0557 34.0973 30.5765V26.9376C34.0973 26.5557 33.7848 26.2432 33.4028 26.2432Z"
        fill="white" />
    <path
        d="M30.1386 20.7015C29.8539 20.4168 29.3608 20.6113 29.3608 21.0071V23.4307C29.3608 24.4446 30.222 25.2849 31.2706 25.2849C31.9303 25.2918 32.847 25.2918 33.6317 25.2918C34.0275 25.2918 34.2358 24.8265 33.9581 24.5488C32.9581 23.5418 31.1664 21.7293 30.1386 20.7015Z"
        fill="white" />
    <path
        d="M23 31.2754V27.8073H24.4755C24.8408 27.8073 25.1302 27.9069 25.3485 28.1109C25.5667 28.3101 25.6758 28.5806 25.6758 28.9174C25.6758 29.2543 25.5667 29.5247 25.3485 29.724C25.1302 29.928 24.8408 30.0276 24.4755 30.0276H23.8872V31.2754H23ZM23.8872 29.2733H24.3759C24.5087 29.2733 24.6131 29.2448 24.6842 29.1784C24.7554 29.1167 24.7934 29.0313 24.7934 28.9174C24.7934 28.8036 24.7554 28.7182 24.6842 28.6565C24.6131 28.5901 24.5087 28.5616 24.3759 28.5616H23.8872V29.2733ZM26.0411 31.2754V27.8073H27.2699C27.5119 27.8073 27.7396 27.8405 27.9531 27.9116C28.1666 27.9828 28.3611 28.0824 28.5319 28.22C28.7027 28.3529 28.8403 28.5331 28.9399 28.7609C29.0348 28.9886 29.087 29.2495 29.087 29.5437C29.087 29.8331 29.0348 30.094 28.9399 30.3217C28.8403 30.5495 28.7027 30.7298 28.5319 30.8626C28.3611 31.0002 28.1666 31.0998 27.9531 31.171C27.7396 31.2421 27.5119 31.2754 27.2699 31.2754H26.0411ZM26.9093 30.521H27.1655C27.3031 30.521 27.4312 30.5068 27.5498 30.4736C27.6637 30.4404 27.7728 30.3882 27.8772 30.317C27.9768 30.2459 28.0575 30.1462 28.1144 30.0134C28.1713 29.8805 28.1998 29.724 28.1998 29.5437C28.1998 29.3586 28.1713 29.2021 28.1144 29.0693C28.0575 28.9364 27.9768 28.8368 27.8772 28.7656C27.7728 28.6945 27.6637 28.6423 27.5498 28.6091C27.4312 28.5759 27.3031 28.5616 27.1655 28.5616H26.9093V30.521ZM29.5329 31.2754V27.8073H32V28.5616H30.4201V29.1167H31.6821V29.8663H30.4201V31.2754H29.5329Z"
        fill="#F5767C" />
    <path opacity="0.5"
        d="M31.6669 16.7565C31.6669 17.0715 31.4919 17.3632 31.2236 17.5148C30.9436 17.6665 30.6169 17.6665 30.3369 17.5032L28.4469 16.3715C28.0269 16.1265 27.8986 15.5898 28.1436 15.1698C28.3886 14.7498 28.9252 14.6215 29.3452 14.8665L29.6952 15.0765C28.9486 12.1949 26.3353 10.0715 23.2319 10.0715C22.7536 10.0715 22.3569 9.67486 22.3569 9.19653C22.3569 8.7182 22.7536 8.3332 23.2436 8.3332C27.8869 8.3332 31.6669 12.1132 31.6669 16.7565Z"
        fill="white" />
    <path opacity="0.5"
        d="M17.6318 30.7916C17.6318 31.2699 17.2468 31.6666 16.7568 31.6666C12.1135 31.6666 8.3335 27.8866 8.3335 23.2433C8.3335 22.9166 8.5085 22.6366 8.77683 22.4733C9.05683 22.3216 9.38349 22.3216 9.66349 22.485L11.5418 23.6166C11.9618 23.8733 12.1018 24.41 11.8452 24.8183C11.6002 25.2383 11.0635 25.3666 10.6435 25.1216L10.2935 24.9116C11.0402 27.7816 13.6535 29.9166 16.7568 29.9166C17.2468 29.9166 17.6318 30.3133 17.6318 30.7916Z"
        fill="white" />
    <defs>
        <linearGradient id="paint0_linear_37_2980" x1="0" y1="0" x2="40" y2="40"
            gradientUnits="userSpaceOnUse">
            <stop stop-color="#FF8157" />
            <stop offset="1" stop-color="#FE6836" />
        </linearGradient>
    </defs>
</svg>
