<svg width="40" height="40" viewBox="0 0 40 40" fill="none" xmlns="http://www.w3.org/2000/svg">
    <rect width="40" height="40" rx="8.33333" fill="url(#paint0_linear_37_3078)" />
    <path fill-rule="evenodd" clip-rule="evenodd"
        d="M12.4206 17.8378V15.5546C12.4206 11.412 15.7789 8.05371 19.9216 8.05371C24.0642 8.05371 27.4225 11.412 27.4225 15.5546V17.8378C28.6613 17.9303 29.468 18.1639 30.0576 18.7536C31.0341 19.73 31.0341 21.3016 31.0341 24.4446C31.0341 27.5877 31.0341 29.1593 30.0576 30.1357C29.0812 31.1122 27.5097 31.1122 24.3666 31.1122H15.4766C12.3335 31.1122 10.7619 31.1122 9.78551 30.1357C8.80908 29.1593 8.80908 27.5877 8.80908 24.4446C8.80908 21.3016 8.80908 19.73 9.78551 18.7536C10.3752 18.1639 11.1819 17.9303 12.4206 17.8378ZM14.0875 15.5546C14.0875 12.3326 16.6995 9.72059 19.9216 9.72059C23.1436 9.72059 25.7556 12.3326 25.7556 15.5546V17.7811C25.33 17.7771 24.8683 17.7771 24.3666 17.7771H15.4766C14.9748 17.7771 14.5131 17.7771 14.0875 17.7811V15.5546ZM15.4766 25.5559C16.0903 25.5559 16.5878 25.0584 16.5878 24.4446C16.5878 23.8309 16.0903 23.3334 15.4766 23.3334C14.8629 23.3334 14.3653 23.8309 14.3653 24.4446C14.3653 25.0584 14.8629 25.5559 15.4766 25.5559ZM19.9216 25.5559C20.5353 25.5559 21.0328 25.0584 21.0328 24.4446C21.0328 23.8309 20.5353 23.3334 19.9216 23.3334C19.3079 23.3334 18.8103 23.8309 18.8103 24.4446C18.8103 25.0584 19.3079 25.5559 19.9216 25.5559ZM25.4778 24.4446C25.4778 25.0584 24.9803 25.5559 24.3666 25.5559C23.7529 25.5559 23.2553 25.0584 23.2553 24.4446C23.2553 23.8309 23.7529 23.3334 24.3666 23.3334C24.9803 23.3334 25.4778 23.8309 25.4778 24.4446Z"
        fill="white" />
    <defs>
        <linearGradient id="paint0_linear_37_3078" x1="20" y1="0" x2="20" y2="40"
            gradientUnits="userSpaceOnUse">
            <stop stop-color="#00BF70" />
            <stop offset="1" stop-color="#95E6B0" />
        </linearGradient>
    </defs>
</svg>
