<svg width="40" height="40" viewBox="0 0 40 40" fill="none" xmlns="http://www.w3.org/2000/svg">
    <rect width="40" height="40" rx="8.33333" fill="url(#paint0_linear_37_3054)" />
    <path
        d="M25.6726 8.89258H21.0053C17.1715 8.89258 15.6157 10.415 15.5713 14.171H19.0051C23.6723 14.171 25.8392 16.338 25.8392 21.0052V24.439C29.5953 24.3945 31.1177 22.8388 31.1177 19.005V14.3377C31.1177 10.4483 29.5619 8.89258 25.6726 8.89258Z"
        fill="white" />
    <path
        d="M19.0044 15.5602C22.8938 15.5602 24.4497 17.1161 24.4497 21.0055V25.6725C24.4497 29.5618 22.8938 31.1178 19.0044 31.1178H14.3374C10.448 31.1178 8.89209 29.5618 8.89209 25.6725V21.0055C8.89209 17.1161 10.448 15.5602 14.3374 15.5602H19.0044ZM16.6714 19.4498C16.3645 19.4498 16.1157 19.6986 16.1157 20.0055V22.7838H13.3374C13.0308 22.784 12.7827 23.0327 12.7827 23.3394C12.7828 23.6459 13.03 23.8946 13.3364 23.8951H16.1157V26.6734C16.116 26.98 16.3647 27.2281 16.6714 27.2281C16.9778 27.2279 17.2267 26.9799 17.2271 26.6734V23.8951H20.0044C20.3112 23.8951 20.561 23.6463 20.561 23.3394C20.561 23.0327 20.312 22.784 20.0054 22.7838H17.2271V20.0055C17.2271 19.6988 16.978 19.4501 16.6714 19.4498Z"
        fill="white" />
    <defs>
        <linearGradient id="paint0_linear_37_3054" x1="20" y1="0" x2="20" y2="40"
            gradientUnits="userSpaceOnUse">
            <stop stop-color="#765AFD" />
            <stop offset="1" stop-color="#AC7FFE" />
        </linearGradient>
    </defs>
</svg>
