<svg width="40" height="40" viewBox="0 0 40 40" fill="none" xmlns="http://www.w3.org/2000/svg">
    <rect width="40" height="40" rx="8.33333" fill="url(#paint0_linear_37_3034)" />
    <path
        d="M18.4028 11.2432H16.3959C14.7501 11.2432 13.4098 9.90289 13.4098 8.25705V6.25011C13.4098 5.86816 13.0973 5.55566 12.7153 5.55566H9.77089C7.632 5.55566 5.90283 6.94455 5.90283 9.42372V15.5765C5.90283 18.0557 7.632 19.4446 9.77089 19.4446H15.2292C17.3681 19.4446 19.0973 18.0557 19.0973 15.5765V11.9376C19.0973 11.5557 18.7848 11.2432 18.4028 11.2432Z"
        fill="white" />
    <path
        d="M15.1386 5.70154C14.8539 5.41682 14.3608 5.61126 14.3608 6.0071V8.43071C14.3608 9.4446 15.222 10.2849 16.2706 10.2849C16.9303 10.2918 17.847 10.2918 18.6317 10.2918C19.0275 10.2918 19.2358 9.82654 18.9581 9.54876C17.9581 8.54182 16.1664 6.72932 15.1386 5.70154Z"
        fill="white" />
    <path
        d="M8 16.2754V12.8073H9.47549C9.84081 12.8073 10.1302 12.9069 10.3485 13.1109C10.5667 13.3101 10.6758 13.5806 10.6758 13.9174C10.6758 14.2543 10.5667 14.5247 10.3485 14.724C10.1302 14.928 9.84081 15.0276 9.47549 15.0276H8.88719V16.2754H8ZM8.88719 14.2733H9.37586C9.50869 14.2733 9.61307 14.2448 9.68425 14.1784C9.7554 14.1167 9.79338 14.0313 9.79338 13.9174C9.79338 13.8036 9.75543 13.7182 9.68425 13.6565C9.6131 13.5901 9.50872 13.5616 9.37586 13.5616H8.88719V14.2733ZM11.0411 16.2754V12.8073H12.2699C12.5119 12.8073 12.7396 12.8405 12.9531 12.9116C13.1666 12.9828 13.3611 13.0824 13.5319 13.22C13.7027 13.3529 13.8403 13.5331 13.9399 13.7609C14.0348 13.9886 14.087 14.2495 14.087 14.5437C14.087 14.8331 14.0348 15.094 13.9399 15.3217C13.8403 15.5495 13.7027 15.7298 13.5319 15.8626C13.3611 16.0002 13.1666 16.0998 12.9531 16.171C12.7396 16.2421 12.5119 16.2754 12.2699 16.2754H11.0411ZM11.9093 15.521H12.1655C12.3031 15.521 12.4312 15.5068 12.5498 15.4736C12.6637 15.4404 12.7728 15.3882 12.8772 15.317C12.9768 15.2459 13.0575 15.1462 13.1144 15.0134C13.1713 14.8805 13.1998 14.724 13.1998 14.5437C13.1998 14.3586 13.1713 14.2021 13.1144 14.0693C13.0575 13.9364 12.9768 13.8368 12.8772 13.7656C12.7728 13.6945 12.6637 13.6423 12.5498 13.6091C12.4312 13.5759 12.3031 13.5616 12.1655 13.5616H11.9093V15.521ZM14.5329 16.2754V12.8073H17V13.5616H15.4201V14.1167H16.6821V14.8663H15.4201V16.2754H14.5329Z"
        fill="#F45359" />
    <path
        d="M20.9584 32.3682L20.9445 32.3821C20.757 31.9723 20.6389 31.5071 20.5903 30.9932C20.6389 31.5001 20.7709 31.9584 20.9584 32.3682Z"
        fill="white" />
    <path
        d="M25.4169 26.3749C26.3297 26.3749 27.0697 25.6349 27.0697 24.7221C27.0697 23.8093 26.3297 23.0693 25.4169 23.0693C24.5041 23.0693 23.7642 23.8093 23.7642 24.7221C23.7642 25.6349 24.5041 26.3749 25.4169 26.3749Z"
        fill="white" />
    <path
        d="M30.4098 20.5557H24.5904C22.0626 20.5557 20.5557 22.0626 20.5557 24.5904V30.4098C20.5557 31.1668 20.6876 31.8265 20.9446 32.3821C21.5418 33.7015 22.8196 34.4446 24.5904 34.4446H30.4098C32.9376 34.4446 34.4446 32.9376 34.4446 30.4098V28.8196V24.5904C34.4446 22.0626 32.9376 20.5557 30.4098 20.5557ZM33.3126 27.8473C32.7709 27.3821 31.8959 27.3821 31.3543 27.8473L28.4654 30.3265C27.9237 30.7918 27.0487 30.7918 26.5071 30.3265L26.2709 30.1321C25.7779 29.7015 24.9932 29.6598 24.4376 30.0348L21.8404 31.7779C21.6876 31.389 21.5973 30.9376 21.5973 30.4098V24.5904C21.5973 22.6321 22.6321 21.5973 24.5904 21.5973H30.4098C32.3682 21.5973 33.4029 22.6321 33.4029 24.5904V27.9237L33.3126 27.8473Z"
        fill="white" />
    <path opacity="0.5"
        d="M31.6664 16.7565C31.6664 17.0715 31.4914 17.3631 31.2231 17.5148C30.9431 17.6665 30.6164 17.6665 30.3364 17.5031L28.4464 16.3715C28.0264 16.1265 27.8981 15.5898 28.1431 15.1698C28.3881 14.7498 28.9248 14.6215 29.3448 14.8665L29.6948 15.0765C28.9481 12.1948 26.3348 10.0715 23.2314 10.0715C22.7531 10.0715 22.3564 9.67483 22.3564 9.1965C22.3564 8.71817 22.7531 8.33317 23.2431 8.33317C27.8864 8.33317 31.6664 12.1132 31.6664 16.7565Z"
        fill="white" />
    <path opacity="0.5"
        d="M17.6318 30.7916C17.6318 31.2699 17.2468 31.6666 16.7568 31.6666C12.1135 31.6666 8.3335 27.8866 8.3335 23.2433C8.3335 22.9166 8.5085 22.6366 8.77683 22.4733C9.05683 22.3216 9.38349 22.3216 9.66349 22.485L11.5418 23.6166C11.9618 23.8733 12.1018 24.41 11.8452 24.8183C11.6002 25.2383 11.0635 25.3666 10.6435 25.1216L10.2935 24.9116C11.0402 27.7816 13.6535 29.9166 16.7568 29.9166C17.2468 29.9166 17.6318 30.3133 17.6318 30.7916Z"
        fill="white" />
    <defs>
        <linearGradient id="paint0_linear_37_3034" x1="0" y1="0" x2="40" y2="40"
            gradientUnits="userSpaceOnUse">
            <stop stop-color="#F3464C" />
            <stop offset="1" stop-color="#F5878C" />
        </linearGradient>
    </defs>
</svg>
