<svg width="40" height="40" viewBox="0 0 40 40" fill="none" xmlns="http://www.w3.org/2000/svg">
    <rect width="40" height="40" rx="8.33333" fill="url(#paint0_linear_37_3014)" />
    <path
        d="M18.2031 11.0431H16.1962C14.5503 11.0431 13.2101 9.70281 13.2101 8.05698V6.05004C13.2101 5.66809 12.8976 5.35559 12.5156 5.35559H9.57118C7.43229 5.35559 5.70312 6.74448 5.70312 9.22365V15.3764C5.70312 17.8556 7.43229 19.2445 9.57118 19.2445H15.0295C17.1684 19.2445 18.8976 17.8556 18.8976 15.3764V11.7375C18.8976 11.3556 18.5851 11.0431 18.2031 11.0431Z"
        fill="white" />
    <path
        d="M14.9394 5.50147C14.6547 5.21674 14.1616 5.41119 14.1616 5.80702V8.23063C14.1616 9.24452 15.0227 10.0848 16.0713 10.0848C16.7311 10.0917 17.6477 10.0917 18.4325 10.0917C18.8283 10.0917 19.0366 9.62647 18.7588 9.34869C17.7588 8.34174 15.9672 6.52924 14.9394 5.50147Z"
        fill="white" />
    <path
        d="M7.80029 16.0752V12.6071H9.27578C9.6411 12.6071 9.93051 12.7067 10.1487 12.9108C10.367 13.11 10.4761 13.3805 10.4761 13.7173C10.4761 14.0541 10.367 14.3246 10.1487 14.5238C9.93051 14.7278 9.6411 14.8275 9.27578 14.8275H8.68748V16.0752H7.80029ZM8.68748 14.0731H9.17615C9.30899 14.0731 9.41336 14.0447 9.48454 13.9783C9.5557 13.9166 9.59367 13.8312 9.59367 13.7173C9.59367 13.6035 9.55572 13.5181 9.48454 13.4564C9.41339 13.39 9.30901 13.3615 9.17615 13.3615H8.68748V14.0731ZM10.8414 16.0752V12.6071H12.0702C12.3121 12.6071 12.5399 12.6403 12.7534 12.7115C12.9668 12.7826 13.1614 12.8823 13.3322 13.0199C13.503 13.1527 13.6406 13.333 13.7402 13.5607C13.8351 13.7885 13.8873 14.0494 13.8873 14.3435C13.8873 14.633 13.8351 14.8939 13.7402 15.1216C13.6406 15.3493 13.503 15.5296 13.3322 15.6625C13.1614 15.8 12.9668 15.8997 12.7534 15.9708C12.5399 16.042 12.3121 16.0752 12.0702 16.0752H10.8414ZM11.7096 15.3209H11.9658C12.1034 15.3209 12.2315 15.3067 12.3501 15.2734C12.464 15.2402 12.5731 15.188 12.6775 15.1169C12.7771 15.0457 12.8577 14.9461 12.9147 14.8132C12.9716 14.6804 13.0001 14.5238 13.0001 14.3435C13.0001 14.1585 12.9716 14.002 12.9147 13.8691C12.8577 13.7363 12.7771 13.6367 12.6775 13.5655C12.5731 13.4943 12.464 13.4421 12.3501 13.4089C12.2315 13.3757 12.1034 13.3615 11.9658 13.3615H11.7096V15.3209ZM14.3332 16.0752V12.6071H16.8003V13.3615H15.2204V13.9165H16.4824V14.6662H15.2204V16.0752H14.3332Z"
        fill="#F45359" />
    <path
        d="M20.9589 32.3682L20.945 32.3821C20.7575 31.9723 20.6394 31.5071 20.5908 30.9932C20.6394 31.5001 20.7714 31.9584 20.9589 32.3682Z"
        fill="white" />
    <path
        d="M25.4169 27.4722C26.3297 27.4722 27.0697 26.7322 27.0697 25.8194C27.0697 24.9066 26.3297 24.1666 25.4169 24.1666C24.5041 24.1666 23.7642 24.9066 23.7642 25.8194C23.7642 26.7322 24.5041 27.4722 25.4169 27.4722Z"
        fill="white" />
    <path
        d="M30.4098 20.5557H24.5904C22.0626 20.5557 20.5557 22.0626 20.5557 24.5904V33.8821C20.5557 34.639 20.6876 35.2987 20.9446 35.8543C21.5418 37.1737 22.8196 37.9168 24.5904 37.9168H30.4098C32.9376 37.9168 34.4446 36.4098 34.4446 33.8821V32.2918V24.5904C34.4446 22.0626 32.9376 20.5557 30.4098 20.5557ZM33.3126 31.3196C32.7709 30.8543 31.8959 30.8543 31.3543 31.3196L28.4654 33.7987C27.9237 34.264 27.0487 34.264 26.5071 33.7987L26.2709 33.6043C25.7779 33.1737 24.9932 33.1321 24.4376 33.5071L21.8404 35.2501C21.6876 34.8612 21.5973 34.4098 21.5973 33.8821V24.5904C21.5973 22.6321 22.6321 21.5973 24.5904 21.5973H30.4098C32.3682 21.5973 33.4029 22.6321 33.4029 24.5904V31.396L33.3126 31.3196Z"
        fill="white" />
    <path opacity="0.5"
        d="M31.6669 16.7569C31.6669 17.0719 31.4919 17.3635 31.2236 17.5152C30.9436 17.6669 30.6169 17.6669 30.3369 17.5035L28.4469 16.3719C28.0269 16.1269 27.8986 15.5902 28.1436 15.1702C28.3886 14.7502 28.9252 14.6219 29.3452 14.8669L29.6952 15.0769C28.9486 12.1952 26.3353 10.0719 23.2319 10.0719C22.7536 10.0719 22.3569 9.67523 22.3569 9.19689C22.3569 8.71856 22.7536 8.33356 23.2436 8.33356C27.8869 8.33356 31.6669 12.1136 31.6669 16.7569Z"
        fill="white" />
    <path opacity="0.5"
        d="M17.6318 30.7916C17.6318 31.2699 17.2468 31.6666 16.7568 31.6666C12.1135 31.6666 8.3335 27.8866 8.3335 23.2433C8.3335 22.9166 8.5085 22.6366 8.77683 22.4733C9.05683 22.3216 9.38349 22.3216 9.66349 22.485L11.5418 23.6166C11.9618 23.8733 12.1018 24.41 11.8452 24.8183C11.6002 25.2383 11.0635 25.3666 10.6435 25.1216L10.2935 24.9116C11.0402 27.7816 13.6535 29.9166 16.7568 29.9166C17.2468 29.9166 17.6318 30.3133 17.6318 30.7916Z"
        fill="white" />
    <defs>
        <linearGradient id="paint0_linear_37_3014" x1="0" y1="0" x2="40" y2="40"
            gradientUnits="userSpaceOnUse">
            <stop stop-color="#F3464C" />
            <stop offset="1" stop-color="#F5878C" />
        </linearGradient>
    </defs>
</svg>
