<svg width="40" height="40" viewBox="0 0 40 40" fill="none" xmlns="http://www.w3.org/2000/svg">
    <rect width="40" height="40" rx="8.33333" fill="#1E88E5" fill-opacity="0.1" />
    <rect width="40" height="40" rx="8.33333" fill="url(#paint0_linear_37_3000)" />
    <path
        d="M9.74472 22.2223C9.26694 22.2223 8.88916 22.6001 8.88916 23.0779V25.6446C8.88916 28.6557 11.3447 31.1112 14.3558 31.1112H16.9225C17.4003 31.1112 17.778 30.7335 17.778 30.2557C17.778 29.7779 17.4003 29.4001 16.9225 29.4001H14.3558C12.278 29.4001 10.6003 27.7112 10.6003 25.6446V23.0779C10.6003 22.6001 10.2114 22.2223 9.74472 22.2223Z"
        fill="white" />
    <path
        d="M30.2555 22.2223C29.7888 22.2223 29.3999 22.6001 29.3999 23.0779V25.6446C29.3999 27.7223 27.7111 29.4001 25.6444 29.4001H23.0777C22.5999 29.4001 22.2222 29.789 22.2222 30.2557C22.2222 30.7223 22.5999 31.1112 23.0777 31.1112H25.6444C28.6555 31.1112 31.1111 28.6557 31.1111 25.6446V23.0779C31.1111 22.6001 30.7333 22.2223 30.2555 22.2223Z"
        fill="white" />
    <path
        d="M25.6446 8.88929H24.1002C23.6335 8.88929 23.2446 9.26707 23.2446 9.74484C23.2446 10.2115 23.6224 10.6004 24.1002 10.6004H25.6446C27.7224 10.6004 29.4002 12.2893 29.4002 14.356V15.8893C29.4002 16.356 29.778 16.7448 30.2557 16.7448C30.7224 16.7448 31.1113 16.3671 31.1113 15.8893V14.356C31.1113 11.3448 28.6557 8.88929 25.6446 8.88929Z"
        fill="white" />
    <path
        d="M16.9225 8.88916H14.3558C11.3447 8.88916 8.88916 11.3447 8.88916 14.3558V16.9225C8.88916 17.4003 9.26694 17.778 9.74472 17.778C10.2225 17.778 10.6003 17.4003 10.6003 16.9225V14.3558C10.6003 12.278 12.2892 10.6003 14.3558 10.6003H16.9225C17.3892 10.6003 17.778 10.2225 17.778 9.74471C17.778 9.26693 17.4003 8.88916 16.9225 8.88916Z"
        fill="white" />
    <path
        d="M27.1779 20.8558H25.6668H14.3335H12.8224C12.3446 20.8558 11.9668 20.4669 11.9668 20.0002C11.9668 19.5336 12.3446 19.1447 12.8224 19.1447H14.3335H25.6668H27.1779C27.6557 19.1447 28.0335 19.5336 28.0335 20.0002C28.0335 20.4669 27.6557 20.8558 27.1779 20.8558Z"
        fill="white" />
    <path
        d="M14.333 17.8447V17.478C14.333 15.6336 15.8219 14.1447 17.6663 14.1447H22.333C24.1775 14.1447 25.6663 15.6336 25.6663 17.478V17.8447C25.6663 17.978 25.5663 18.078 25.433 18.078H14.5663C14.433 18.078 14.333 17.978 14.333 17.8447Z"
        fill="white" />
    <path
        d="M14.333 22.1558V22.5224C14.333 24.3669 15.8219 25.8558 17.6663 25.8558H22.333C24.1775 25.8558 25.6663 24.3669 25.6663 22.5224V22.1558C25.6663 22.0224 25.5663 21.9224 25.433 21.9224H14.5663C14.433 21.9224 14.333 22.0224 14.333 22.1558Z"
        fill="white" />
    <defs>
        <linearGradient id="paint0_linear_37_3000" x1="20.0002" y1="-4.00037" x2="20.0002"
            y2="43.9999" gradientUnits="userSpaceOnUse">
            <stop stop-color="#99CFFF" />
            <stop offset="1" stop-color="#1E88E5" />
        </linearGradient>
    </defs>
</svg>
