<svg width="40" height="40" viewBox="0 0 40 40" fill="none" xmlns="http://www.w3.org/2000/svg">
    <rect width="40" height="40" rx="8.33333" fill="url(#paint0_linear_37_3067)" />
    <path
        d="M31.5207 14.0587C31.9219 13.8331 32.0643 13.325 31.8387 12.9238C31.6131 12.5226 31.105 12.3802 30.7038 12.6058L10.2319 24.1157C8.93438 24.8219 8.05378 26.1973 8.05378 27.7785C8.05378 30.08 9.91949 31.9457 12.221 31.9457C14.5224 31.9457 16.3882 30.08 16.3882 27.7785C16.3882 26.0753 15.3663 24.6107 13.9023 23.9644L31.5207 14.0587Z"
        fill="white" />
    <path
        d="M31.5207 25.9403C31.9219 26.1659 32.0643 26.674 31.8387 27.0752C31.6131 27.4765 31.105 27.6189 30.7038 27.3933L10.2319 15.8833C8.93438 15.1772 8.05378 13.8017 8.05378 12.2205C8.05378 9.91906 9.91949 8.05334 12.221 8.05334C14.5224 8.05334 16.3882 9.91906 16.3882 12.2205C16.3882 13.9237 15.3663 15.3883 13.9023 16.0346L31.5207 25.9403Z"
        fill="white" />
    <defs>
        <linearGradient id="paint0_linear_37_3067" x1="0" y1="0" x2="40" y2="40"
            gradientUnits="userSpaceOnUse">
            <stop stop-color="#1E69FE" />
            <stop offset="1" stop-color="#80AAFF" />
        </linearGradient>
    </defs>
</svg>
