<svg width="40" height="40" viewBox="0 0 40 40" fill="none" xmlns="http://www.w3.org/2000/svg">
    <rect width="40" height="40" rx="8.33333" fill="url(#paint0_linear_37_3095)" />
    <path fill-rule="evenodd" clip-rule="evenodd"
        d="M31.1908 15.8809C31.1908 19.7434 28.0468 22.8745 24.1686 22.8745C23.4609 22.8745 21.8496 22.7119 21.0657 22.0613L20.0858 23.0372C19.5097 23.611 19.6653 23.7799 19.9215 24.0581C20.0285 24.1743 20.1529 24.3094 20.2491 24.5009C20.2491 24.5009 21.0656 25.6394 20.2491 26.7779C19.7592 27.4285 18.3874 28.3393 16.8196 26.7779L16.493 27.1032C16.493 27.1032 17.4729 28.2417 16.6563 29.3802C16.1664 30.0307 14.8599 30.6813 13.7168 29.5428L12.5736 30.6813C11.7897 31.462 10.8317 31.0066 10.4506 30.6813L9.47078 29.7055C8.55625 28.7947 9.08973 27.808 9.47078 27.4285L17.9628 18.9711C17.9628 18.9711 17.1463 17.67 17.1463 15.8809C17.1463 12.0185 20.2903 8.88736 24.1686 8.88736C28.0468 8.88736 31.1908 12.0185 31.1908 15.8809ZM24.1688 18.3207C25.5217 18.3207 26.6184 17.2284 26.6184 15.881C26.6184 14.5337 25.5217 13.4414 24.1688 13.4414C22.8159 13.4414 21.7192 14.5337 21.7192 15.881C21.7192 17.2284 22.8159 18.3207 24.1688 18.3207Z"
        fill="white" />
    <defs>
        <linearGradient id="paint0_linear_37_3095" x1="0" y1="0" x2="40" y2="40"
            gradientUnits="userSpaceOnUse">
            <stop stop-color="#FFA72C" />
            <stop offset="1" stop-color="#FFBE63" />
        </linearGradient>
    </defs>
</svg>
