<svg width="20" height="20" viewBox="0 0 20 20" fill="none" xmlns="http://www.w3.org/2000/svg">
    <path d="M15.8831 15.5583L14.0997 12L12.3164 15.5583" stroke="#D90000" stroke-width="1.25"
        stroke-linecap="round" stroke-linejoin="round" />
    <path d="M12.6416 14.9249H15.5749" stroke="#D90000" stroke-width="1.25" stroke-linecap="round"
        stroke-linejoin="round" />
    <path
        d="M14.1 18.3334C11.7667 18.3334 9.8667 16.4417 9.8667 14.1001C9.8667 11.7667 11.7584 9.86676 14.1 9.86676C16.4334 9.86676 18.3334 11.7584 18.3334 14.1001C18.3334 16.4417 16.4417 18.3334 14.1 18.3334Z"
        stroke="#404040" stroke-width="1.25" stroke-linecap="round" stroke-linejoin="round" />
    <path
        d="M4.18317 1.66669H7.44984C9.17484 1.66669 10.0082 2.50004 9.96651 4.18337V7.45002C10.0082 9.17502 9.17484 10.0084 7.44984 9.96671H4.18317C2.49984 10 1.6665 9.16668 1.6665 7.44168V4.17503C1.6665 2.50003 2.49984 1.66669 4.18317 1.66669Z"
        stroke="#404040" stroke-width="1.25" stroke-linecap="round" stroke-linejoin="round" />
    <path d="M7.50833 4.87494H4.125" stroke="#D90000" stroke-width="1.25" stroke-linecap="round"
        stroke-linejoin="round" />
    <path d="M5.80811 4.30835V4.87501" stroke="#D90000" stroke-width="1.25" stroke-linecap="round"
        stroke-linejoin="round" />
    <path d="M6.65837 4.8667C6.65837 6.32503 5.5167 7.50835 4.1167 7.50835" stroke="#D90000"
        stroke-width="1.25" stroke-linecap="round" stroke-linejoin="round" />
    <path d="M7.50846 7.50842C6.90012 7.50842 6.35013 7.18341 5.9668 6.66675" stroke="#D90000"
        stroke-width="1.25" stroke-linecap="round" stroke-linejoin="round" />
    <path d="M1.66699 12.5001C1.66699 15.7251 4.27533 18.3334 7.50033 18.3334L6.62532 16.8751"
        stroke="#404040" stroke-width="1.25" stroke-linecap="round" stroke-linejoin="round" />
    <path d="M18.3333 7.50008C18.3333 4.27508 15.725 1.66675 12.5 1.66675L13.375 3.12508"
        stroke="#404040" stroke-width="1.25" stroke-linecap="round" stroke-linejoin="round" />
</svg>
