<svg width="20" height="20" viewBox="0 0 20 20" fill="none" xmlns="http://www.w3.org/2000/svg">
    <path
        d="M4 8.94442C4 6.81269 4 5.74683 4.25168 5.38825C4.50335 5.02967 5.50555 4.68662 7.50994 4.00051L7.89182 3.86979C8.93666 3.51214 9.45907 3.33331 10 3.33331C10.5409 3.33331 11.0633 3.51214 12.1082 3.86979L12.4901 4.00051C14.4945 4.68662 15.4966 5.02967 15.7483 5.38825C16 5.74683 16 6.81269 16 8.94442C16 9.26641 16 9.61559 16 9.99422C16 13.7529 13.174 15.577 11.401 16.3515C10.92 16.5616 10.6795 16.6666 10 16.6666C9.32049 16.6666 9.08001 16.5616 8.59904 16.3515C6.82597 15.577 4 13.7529 4 9.99422C4 9.61559 4 9.26641 4 8.94442Z"
        stroke="#404040" stroke-width="1.25" />
    <path d="M8.3335 10.2667L9.28588 11.3334L11.6668 8.66669" stroke="#D90000" stroke-width="1.25"
        stroke-linecap="round" stroke-linejoin="round" />
</svg>
