<svg width="20" height="20" viewBox="0 0 20 20" fill="none" xmlns="http://www.w3.org/2000/svg">
    <path
        d="M9.84299 5.60556C10.6874 4.09073 11.1096 3.33331 11.7409 3.33331C12.3721 3.33331 12.7943 4.09073 13.6388 5.60556L13.8572 5.99747C14.0972 6.42794 14.2172 6.64317 14.4043 6.78518C14.5913 6.9272 14.8243 6.97991 15.2903 7.08534L15.7145 7.18133C17.3543 7.55235 18.1742 7.73786 18.3693 8.36513C18.5643 8.99241 18.0054 9.64603 16.8875 10.9533L16.5983 11.2915C16.2806 11.6629 16.1218 11.8487 16.0503 12.0785C15.9789 12.3082 16.0029 12.5561 16.0509 13.0517L16.0946 13.5029C16.2636 15.247 16.3481 16.1191 15.8375 16.5068C15.3268 16.8945 14.5591 16.541 13.0238 15.8341L12.6266 15.6512C12.1903 15.4503 11.9721 15.3499 11.7409 15.3499C11.5096 15.3499 11.2915 15.4503 10.8552 15.6512L10.458 15.8341C8.92267 16.541 8.155 16.8945 7.64432 16.5068C7.13363 16.1191 7.21814 15.247 7.38715 13.5029L7.43087 13.0517C7.4789 12.5561 7.50292 12.3082 7.43146 12.0785C7.36 11.8487 7.20117 11.6629 6.8835 11.2915L6.59428 10.9533C5.47638 9.64603 4.91744 8.99241 5.1125 8.36513C5.30756 7.73786 6.12746 7.55235 7.76724 7.18133L8.19148 7.08535C8.65745 6.97991 8.89044 6.9272 9.07751 6.78518C9.26459 6.64317 9.38457 6.42794 9.62453 5.99747L9.84299 5.60556Z"
        stroke="#404040" stroke-width="1.25" />
    <path d="M1.74072 13.3333C2.67038 12.6008 3.90533 12.3309 5.07406 12.6048" stroke="#D90000"
        stroke-width="1.25" stroke-linecap="round" />
    <path d="M1.74072 8.74998C2.57406 8.33331 2.81552 8.38373 3.40739 8.33331" stroke="#D90000"
        stroke-width="1.25" stroke-linecap="round" />
    <path
        d="M1.6665 4.67387L1.83997 4.57228C3.67803 3.49586 5.62511 3.2057 7.4607 3.73466L7.63394 3.78458"
        stroke="#D90000" stroke-width="1.25" stroke-linecap="round" />
</svg>
