<svg width="27" height="26" viewBox="0 0 27 26" fill="none" xmlns="http://www.w3.org/2000/svg">
    <path d="M26.647 10.957L20.7774 16.6786L22.1635 24.7599C22.2238 25.1132 22.0787 25.4704 21.7885 25.6815C21.6245 25.8011 21.4295 25.8614 21.2344 25.8614C21.0846 25.8614 20.9338 25.8256 20.7962 25.7531L13.5386 21.9377L6.28186 25.7521C5.96525 25.9199 5.57984 25.8925 5.28961 25.6805C4.99938 25.4694 4.85426 25.1123 4.91457 24.7589L6.30071 16.6777L0.43013 10.957C0.173822 10.7063 0.0805333 10.3313 0.191726 9.99109C0.302918 9.65092 0.59786 9.40121 0.95311 9.34938L9.06544 8.1715L12.6933 0.819611C13.0109 0.176015 14.0663 0.176015 14.3838 0.819611L18.0117 8.1715L26.124 9.34938C26.4793 9.40121 26.7742 9.64998 26.8854 9.99109C26.9966 10.3322 26.9033 10.7054 26.647 10.957Z" fill="#302BD6"/>
</svg>
