<svg width="29" height="28" viewBox="0 0 29 28" fill="none" xmlns="http://www.w3.org/2000/svg">
<rect x="0.946533" y="0.312744" width="27.4809" height="27.4809" rx="13.7405" fill="#787880" fill-opacity="0.16"/>
<path d="M14.6883 7.33594C15.3231 7.33594 15.8449 7.82032 15.904 8.43969L15.9096 8.55731L15.9093 12.8315L20.1844 12.8321C20.859 12.8321 21.4058 13.3789 21.4058 14.0535C21.4058 14.6884 20.9214 15.2101 20.3021 15.2693L20.1844 15.2749L15.9093 15.2746L15.9096 19.5497C15.9096 20.2242 15.3628 20.7711 14.6883 20.7711C14.0534 20.7711 13.5317 20.2867 13.4725 19.6673L13.4669 19.5497L13.4663 15.2746L9.19208 15.2749C8.51753 15.2749 7.9707 14.728 7.9707 14.0535C7.9707 13.4186 8.45509 12.8969 9.07445 12.8377L9.19208 12.8321L13.4663 12.8315L13.4669 8.55731C13.4669 7.88277 14.0137 7.33594 14.6883 7.33594Z" fill="#3C3C43" fill-opacity="0.6"/>
</svg>
