<svg width="24" height="24" viewBox="0 0 24 24" fill="none" xmlns="http://www.w3.org/2000/svg">
    <path
        d="M12 1C12.1077 1 12.215 1.00175 12.3219 1.00511C12.7064 1.01717 13 1.34162 13 1.7264C13 2.16764 12.6176 2.50953 12.1764 2.50159C12.1177 2.50053 12.0589 2.5 12 2.5C6.75329 2.5 2.5 6.75329 2.5 12C2.5 17.2467 6.75329 21.5 12 21.5C17.2467 21.5 21.5 17.2467 21.5 12C21.5 11.9412 21.4994 11.8826 21.4983 11.8241C21.4901 11.3826 21.8316 11 22.2732 11C22.6582 11 22.9829 11.2937 22.9949 11.6786C22.9983 11.7853 23 11.8925 23 12C23 18.0751 18.0751 23 12 23C5.92487 23 1 18.0751 1 12C1 5.92487 5.92487 1 12 1Z"
        fill="white" />
    <path
        d="M19.611 0.0782261L20.0257 1.22967C20.4863 2.50762 21.4927 3.51398 22.7707 3.97456L23.9222 4.38918C24.0259 4.42687 24.0259 4.57403 23.9222 4.61121L22.7707 5.02583C21.4927 5.48641 20.4863 6.49276 20.0257 7.77071L19.611 8.92216C19.5733 9.02595 19.4262 9.02595 19.389 8.92216L18.9743 7.77071C18.5137 6.49276 17.5073 5.48641 16.2293 5.02583L15.0778 4.61121C14.9741 4.57351 14.9741 4.42636 15.0778 4.38918L16.2293 3.97456C17.5073 3.51398 18.5137 2.50762 18.9743 1.22967L19.389 0.0782261C19.4262 -0.0260754 19.5733 -0.0260754 19.611 0.0782261Z"
        fill="white" />
    <path
        d="M6.42188 16L9.375 7.54492H11.4551L14.4023 16H12.5449L11.9062 13.9492H8.91797L8.2793 16H6.42188ZM10.3945 9.18555L9.32812 12.625H11.4961L10.4297 9.18555H10.3945ZM15.2695 16V7.54492H17.0391V16H15.2695Z"
        fill="white" />
    <path
        d="M23.0247 7.01733L23.1169 7.27314C23.2193 7.55704 23.443 7.78067 23.7269 7.88309L23.9827 7.9753C24.0058 7.98369 24.0058 8.01631 23.9827 8.0247L23.7269 8.11691C23.443 8.21933 23.2193 8.44296 23.1169 8.72686L23.0247 8.98267C23.0163 9.00578 22.9837 9.00578 22.9753 8.98267L22.8831 8.72686C22.7807 8.44296 22.557 8.21933 22.2731 8.11691L22.0173 8.0247C21.9942 8.01631 21.9942 7.98369 22.0173 7.9753L22.2731 7.88309C22.557 7.78067 22.7807 7.55704 22.8831 7.27314L22.9753 7.01733C22.9837 6.99422 23.0165 6.99422 23.0247 7.01733Z"
        fill="white" />
    <path
        d="M15.0247 0.0173332L15.1169 0.273139C15.2193 0.557041 15.443 0.780673 15.7269 0.883086L15.9827 0.975303C16.0058 0.983687 16.0058 1.01631 15.9827 1.0247L15.7269 1.11691C15.443 1.21933 15.2193 1.44296 15.1169 1.72686L15.0247 1.98267C15.0163 2.00578 14.9837 2.00578 14.9753 1.98267L14.8831 1.72686C14.7807 1.44296 14.557 1.21933 14.2731 1.11691L14.0173 1.0247C13.9942 1.01631 13.9942 0.983687 14.0173 0.975303L14.2731 0.883086C14.557 0.780673 14.7807 0.557041 14.8831 0.273139L14.9753 0.0173332C14.9837 -0.00577773 15.0165 -0.00577773 15.0247 0.0173332Z"
        fill="white" />
</svg>
