<svg width="24" height="24" viewBox="0 0 24 24" fill="none" xmlns="http://www.w3.org/2000/svg">
    <path
        d="M11.9426 1.24995C9.63423 1.24994 7.82519 1.24993 6.41371 1.4397C4.96897 1.63394 3.82895 2.03928 2.93414 2.93409C2.03933 3.8289 1.63399 4.96892 1.43975 6.41366C1.24998 7.82515 1.24999 9.63418 1.25 11.9426V12.0573C1.24999 14.3657 1.24998 16.1748 1.43975 17.5863C1.63399 19.031 2.03933 20.171 2.93414 21.0658C3.82895 21.9606 4.96897 22.366 6.41371 22.5602C7.82519 22.75 9.63423 22.75 11.9426 22.75H12.0574C14.3658 22.75 16.1748 22.75 17.5863 22.5602C19.031 22.366 20.1711 21.9606 21.0659 21.0658C21.9607 20.171 22.366 19.031 22.5603 17.5863C22.75 16.1748 22.75 14.3657 22.75 12.0573V10.5C22.75 10.0857 22.4142 9.74995 22 9.74995C21.5858 9.74995 21.25 10.0857 21.25 10.5V12C21.25 14.3782 21.2484 16.0864 21.0736 17.3864C20.9018 18.6648 20.5749 19.4355 20.0052 20.0052C19.4355 20.5748 18.6648 20.9017 17.3864 21.0736C16.0864 21.2484 14.3782 21.25 12 21.25C9.62178 21.25 7.91356 21.2484 6.61358 21.0736C5.33517 20.9017 4.56445 20.5748 3.9948 20.0052C3.42514 19.4355 3.09825 18.6648 2.92637 17.3864C2.75159 16.0864 2.75 14.3782 2.75 12C2.75 9.62173 2.75159 7.91351 2.92637 6.61353C3.09825 5.33513 3.42514 4.56441 3.9948 3.99475C4.56445 3.42509 5.33517 3.0982 6.61358 2.92633C7.91356 2.75155 9.62178 2.74995 12 2.74995H13.5C13.9142 2.74995 14.25 2.41417 14.25 1.99995C14.25 1.58574 13.9142 1.24995 13.5 1.24995H11.9426Z"
        fill="#D90000" />
    <path
        d="M6.25 14C6.25 13.5857 6.58579 13.25 7 13.25H16C16.4142 13.25 16.75 13.5857 16.75 14C16.75 14.4142 16.4142 14.75 16 14.75H7C6.58579 14.75 6.25 14.4142 6.25 14Z"
        fill="#D90000" />
    <path
        d="M7 16.75C6.58579 16.75 6.25 17.0857 6.25 17.5C6.25 17.9142 6.58579 18.25 7 18.25H13C13.4142 18.25 13.75 17.9142 13.75 17.5C13.75 17.0857 13.4142 16.75 13 16.75H7Z"
        fill="#D90000" />
    <path
        d="M19.8309 6.56684C19.7128 7.14489 18.8868 7.14489 18.7687 6.56684C18.5077 5.29016 17.51 4.29244 16.2333 4.0315C15.6553 3.91335 15.6553 3.08742 16.2333 2.96927C17.51 2.70832 18.5077 1.71061 18.7687 0.43392C18.8868 -0.144131 19.7128 -0.144131 19.8309 0.433921C20.0919 1.71061 21.0896 2.70832 22.3663 2.96927C22.9443 3.08742 22.9443 3.91335 22.3663 4.0315C21.0896 4.29244 20.0919 5.29016 19.8309 6.56684Z"
        fill="#D90000" />
    <path
        d="M16.1038 10.7534C16.0363 11.0838 15.5643 11.0838 15.4968 10.7534C15.3477 10.0239 14.7776 9.45378 14.048 9.30467C13.7177 9.23715 13.7177 8.7652 14.048 8.69768C14.7776 8.54857 15.3477 7.97845 15.4968 7.24891C15.5643 6.9186 16.0363 6.9186 16.1038 7.24891C16.2529 7.97845 16.823 8.54857 17.5526 8.69768C17.8829 8.7652 17.8829 9.23715 17.5526 9.30467C16.823 9.45378 16.2529 10.0239 16.1038 10.7534Z"
        fill="#D90000" />
</svg>
