<svg width="25" height="26" viewBox="0 0 25 26" fill="none" xmlns="http://www.w3.org/2000/svg">
    <path
        d="M14.79 20.6188C14.68 20.6188 14.56 20.5889 14.46 20.5389C14.09 20.3489 13.94 19.8989 14.12 19.5289L16.26 15.2589C16.39 15.0089 16.65 14.8489 16.93 14.8489C17.21 14.8489 17.47 15.0089 17.6 15.2689L19.74 19.5389C19.93 19.9089 19.78 20.3588 19.4 20.5488C19.03 20.7388 18.58 20.5889 18.39 20.2089L16.93 17.2789L15.47 20.2089C15.33 20.4689 15.06 20.6188 14.79 20.6188Z"
        fill="#D90000" />
    <path
        d="M18.6801 19.8586H15.1602C14.7502 19.8586 14.4102 19.5186 14.4102 19.1086C14.4102 18.6986 14.7502 18.3586 15.1602 18.3586H18.6801C19.0901 18.3586 19.4301 18.6986 19.4301 19.1086C19.4301 19.5186 19.1001 19.8586 18.6801 19.8586Z"
        fill="#D90000" />
    <path
        d="M16.9198 23.9483C13.7098 23.9483 11.0898 21.3383 11.0898 18.1183C11.0898 14.8983 13.6998 12.2883 16.9198 12.2883C20.1298 12.2883 22.7498 14.8983 22.7498 18.1183C22.7498 21.3383 20.1398 23.9483 16.9198 23.9483ZM16.9198 13.7983C14.5298 13.7983 12.5898 15.7383 12.5898 18.1283C12.5898 20.5183 14.5298 22.4583 16.9198 22.4583C19.2998 22.4583 21.2498 20.5183 21.2498 18.1283C21.2498 15.7383 19.3098 13.7983 16.9198 13.7983Z"
        fill="#D90000" />
    <path
        d="M4.86 13.8987C3.75 13.8987 2.87 13.5887 2.25 12.9887C1.59 12.3487 1.25 11.3787 1.25 10.1287V6.20874C1.25 3.77874 2.59 2.43872 5.02 2.43872H8.94C10.19 2.43872 11.15 2.76872 11.8 3.43872C12.43 4.08872 12.74 5.02876 12.71 6.22876V10.1287C12.74 11.3487 12.43 12.3087 11.78 12.9587C11.13 13.6087 10.17 13.9087 8.92999 13.8887H5.03C4.96 13.8987 4.91 13.8987 4.86 13.8987ZM5.02 3.94873C3.41 3.94873 2.75 4.60875 2.75 6.21875V10.1387C2.75 10.9687 2.92999 11.5687 3.28999 11.9187C3.63999 12.2587 4.20001 12.4087 4.99001 12.3987H8.92999C9.76999 12.4187 10.35 12.2487 10.7 11.8987C11.05 11.5487 11.21 10.9587 11.19 10.1487V6.20874C11.21 5.40874 11.05 4.83871 10.71 4.48871C10.36 4.12871 9.75999 3.94873 8.92999 3.94873H5.02Z"
        fill="#D90000" />
    <path
        d="M8.99994 7.79814H4.93994C4.52994 7.79814 4.18994 7.45814 4.18994 7.04814C4.18994 6.63814 4.52994 6.29814 4.93994 6.29814H8.99994C9.40994 6.29814 9.74994 6.63814 9.74994 7.04814C9.74994 7.45814 9.41994 7.79814 8.99994 7.79814Z"
        fill="#D90000" />
    <path
        d="M6.97949 7.79845C6.56949 7.79845 6.22949 7.45845 6.22949 7.04845V6.36845C6.22949 5.95845 6.56949 5.61845 6.97949 5.61845C7.38949 5.61845 7.72949 5.95845 7.72949 6.36845V7.04845C7.72949 7.45845 7.38949 7.79845 6.97949 7.79845Z"
        fill="#D90000" />
    <path
        d="M4.93994 10.9583C4.52994 10.9583 4.18994 10.6183 4.18994 10.2083C4.18994 9.79831 4.52994 9.45831 4.93994 9.45831C6.20994 9.45831 7.23994 8.37833 7.23994 7.03833C7.23994 6.62833 7.57994 6.28833 7.98994 6.28833C8.39994 6.28833 8.73994 6.62833 8.73994 7.03833C8.73994 9.19833 7.03994 10.9583 4.93994 10.9583Z"
        fill="#D90000" />
    <path
        d="M9.00993 10.9585C8.07993 10.9585 7.18994 10.4885 6.55994 9.65852C6.30994 9.32852 6.37995 8.85847 6.70995 8.60847C7.03995 8.35847 7.50993 8.42849 7.75993 8.75849C8.09993 9.21849 8.54993 9.46852 9.00993 9.46852C9.41993 9.46852 9.75993 9.80852 9.75993 10.2185C9.75993 10.6285 9.41993 10.9585 9.00993 10.9585Z"
        fill="#D90000" />
    <path
        d="M9 23.9484C4.73 23.9484 1.25 20.4684 1.25 16.1984C1.25 15.7884 1.59 15.4484 2 15.4484C2.41 15.4484 2.75 15.7884 2.75 16.1984C2.75 19.1584 4.81 21.6385 7.58 22.2885L7.31 21.8385C7.1 21.4785 7.21001 21.0184 7.57001 20.8084C7.92001 20.5984 8.39001 20.7084 8.60001 21.0684L9.64999 22.8184C9.78999 23.0484 9.79 23.3384 9.66 23.5684C9.52 23.7984 9.27 23.9484 9 23.9484Z"
        fill="#D90000" />
    <path
        d="M21.6312 4.43433C21.5131 3.85628 20.6871 3.85628 20.569 4.43433C20.308 5.71102 19.3103 6.70874 18.0336 6.96968C17.4556 7.08783 17.4556 7.91376 18.0336 8.03191C19.3103 8.29285 20.308 9.29057 20.569 10.5673C20.6871 11.1453 21.5131 11.1453 21.6312 10.5673C21.8922 9.29057 22.8899 8.29285 24.1666 8.03191C24.7446 7.91376 24.7446 7.08783 24.1666 6.96968C22.8899 6.70874 21.8922 5.71102 21.6312 4.43433Z"
        fill="#D90000" />
    <path
        d="M17.9036 0.247736C17.8361 -0.0825788 17.3641 -0.0825787 17.2966 0.247736C17.1475 0.977271 16.5774 1.5474 15.8478 1.69651C15.5175 1.76402 15.5175 2.23598 15.8478 2.30349C16.5774 2.4526 17.1475 3.02273 17.2966 3.75226C17.3641 4.08258 17.8361 4.08258 17.9036 3.75226C18.0527 3.02273 18.6228 2.4526 19.3524 2.30349C19.6827 2.23598 19.6827 1.76402 19.3524 1.69651C18.6228 1.5474 18.0527 0.977271 17.9036 0.247736Z"
        fill="#D90000" />
</svg>
