<svg width="17" height="16" viewBox="0 0 17 16" fill="none" xmlns="http://www.w3.org/2000/svg">
<path d="M8.5 0.5C4.36 0.5 1 3.86 1 8C1 12.14 4.36 15.5 8.5 15.5C12.64 15.5 16 12.14 16 8C16 3.86 12.64 0.5 8.5 0.5ZM8.5 12.5C7.95 12.5 7.5 12.05 7.5 11.5C7.5 10.95 7.95 10.5 8.5 10.5C9.05 10.5 9.5 10.95 9.5 11.5C9.5 12.05 9.05 12.5 8.5 12.5ZM9.645 4.745L9.31 8.755C9.275 9.175 8.925 9.5 8.5 9.5C8.075 9.5 7.725 9.175 7.69 8.755L7.355 4.745C7.3 4.075 7.825 3.5 8.5 3.5C9.14 3.5 9.65 4.02 9.65 4.65C9.65 4.68 9.65 4.715 9.645 4.745Z" fill="#EE1C25"/>
</svg>
