<svg width="24" height="24" viewBox="0 0 24 24" fill="none" xmlns="http://www.w3.org/2000/svg">
    <path fill-rule="evenodd" clip-rule="evenodd"
        d="M22 11.9999C22 17.5227 17.5228 21.9999 12 21.9999C6.47715 21.9999 2 17.5227 2 11.9999C2 6.47703 6.47715 1.99988 12 1.99988C17.5228 1.99988 22 6.47703 22 11.9999ZM8.96963 8.96953C9.26252 8.67663 9.73739 8.67663 10.0303 8.96953L12 10.9392L13.9696 8.96955C14.2625 8.67665 14.7374 8.67665 15.0303 8.96955C15.3232 9.26244 15.3232 9.73732 15.0303 10.0302L13.0606 11.9999L15.0303 13.9695C15.3232 14.2624 15.3232 14.7373 15.0303 15.0302C14.7374 15.3231 14.2625 15.3231 13.9696 15.0302L12 13.0605L10.0303 15.0302C9.73742 15.3231 9.26254 15.3231 8.96965 15.0302C8.67676 14.7373 8.67676 14.2624 8.96965 13.9695L10.9393 11.9999L8.96963 10.0302C8.67673 9.73729 8.67673 9.26242 8.96963 8.96953Z"
        fill="#808080" />
</svg>
