<svg width="20" height="20" viewBox="0 0 20 20" fill="none" xmlns="http://www.w3.org/2000/svg">
    <path d="M17.0832 5H2.9165" stroke="#FF4A40" stroke-linecap="round"/>
    <path d="M15.6946 7.08325L15.3113 12.8325C15.1638 15.0449 15.09 16.1512 14.3692 16.8255C13.6483 17.4999 12.5397 17.4999 10.3223 17.4999H9.67787C7.46054 17.4999 6.35187 17.4999 5.63103 16.8255C4.91019 16.1512 4.83644 15.0449 4.68895 12.8325L4.30566 7.08325" stroke="#FF4A40" stroke-linecap="round"/>
    <path d="M7.91675 9.16675L8.33342 13.3334" stroke="#FF4A40" stroke-linecap="round"/>
    <path d="M12.0834 9.16675L11.6667 13.3334" stroke="#FF4A40" stroke-linecap="round"/>
    <path d="M5.41675 5C5.46331 5 5.4866 5 5.50771 4.99947C6.19391 4.98208 6.79927 4.54576 7.03276 3.90027C7.03994 3.88041 7.04731 3.85832 7.06203 3.81415L7.14294 3.57143C7.212 3.36423 7.24654 3.26063 7.29234 3.17267C7.47509 2.82173 7.8132 2.57803 8.20392 2.51564C8.30186 2.5 8.41106 2.5 8.62947 2.5H11.3707C11.5891 2.5 11.6983 2.5 11.7962 2.51564C12.187 2.57803 12.5251 2.82173 12.7078 3.17267C12.7536 3.26063 12.7882 3.36423 12.8572 3.57143L12.9381 3.81415C12.9528 3.85826 12.9602 3.88042 12.9674 3.90027C13.2009 4.54576 13.8063 4.98208 14.4925 4.99947C14.5136 5 14.5368 5 14.5834 5" stroke="#FF4A40"/>
</svg>
