<svg width="16" height="16" viewBox="0 0 16 16" fill="none" xmlns="http://www.w3.org/2000/svg">
    <g clip-path="url(#clip0_89_3468)">
        <path d="M12.0001 6.66675L8.66675 6.66675" stroke="#BFBFBF" stroke-linecap="round"/>
        <path d="M1.33325 4.63308C1.33325 4.04473 1.33325 3.75055 1.37949 3.50551C1.58301 2.42679 2.42679 1.58301 3.50551 1.37949C3.75055 1.33325 4.04473 1.33325 4.63308 1.33325C4.89087 1.33325 5.01976 1.33325 5.14363 1.34484C5.67769 1.39478 6.18427 1.60461 6.59721 1.94693C6.69299 2.02633 6.78414 2.11747 6.96642 2.29975L7.33325 2.66659C7.8771 3.21044 8.14903 3.48236 8.47466 3.66354C8.65354 3.76306 8.84329 3.84165 9.04015 3.89777C9.39852 3.99992 9.78308 3.99992 10.5522 3.99992H10.8013C12.5562 3.99992 13.4337 3.99992 14.004 4.5129C14.0565 4.56008 14.1064 4.61001 14.1536 4.66247C14.6666 5.23282 14.6666 6.11028 14.6666 7.86519V9.33325C14.6666 11.8474 14.6666 13.1045 13.8855 13.8855C13.1045 14.6666 11.8474 14.6666 9.33325 14.6666H6.66658C4.15243 14.6666 2.89535 14.6666 2.1143 13.8855C1.33325 13.1045 1.33325 11.8474 1.33325 9.33325V4.63308Z" stroke="#BFBFBF"/>
    </g>
    <defs>
        <clipPath id="clip0_89_3468">
            <rect width="16" height="16" fill="white"/>
        </clipPath>
    </defs>
</svg>
