<svg width="34" height="35" viewBox="0 0 34 35" fill="none" xmlns="http://www.w3.org/2000/svg">
<path fill-rule="evenodd" clip-rule="evenodd" d="M22.3632 1H6.4019C5.21344 1 4.25 1.96344 4.25 3.1519V32.8481C4.25 34.0366 5.21344 35 6.4019 35H27.5981C28.7866 35 29.75 34.0366 29.75 32.8481V8.38677L22.3632 1Z" fill="url(#paint0_linear_2436_5752)"/>
<g filter="url(#filter0_d_2436_5752)">
<path fill-rule="evenodd" clip-rule="evenodd" d="M22.4283 1.068L29.8755 8.51514H24.5803C23.3918 8.51514 22.4283 7.5517 22.4283 6.36324V1.068Z" fill="white" fill-opacity="0.35" shape-rendering="crispEdges"/>
</g>
<path d="M6.61279 31V26.0679H7.64502V31H6.61279ZM8.46533 31V26.0679H9.6582L11.0596 29.6123H11.0801L12.4814 26.0679H13.6743V31H12.7549V27.6641H12.7241L11.3945 31H10.7451L9.41211 27.6641H9.38477V31H8.46533ZM14.1802 31L15.9028 26.0679H17.1162L18.8354 31H17.752L17.3794 29.8037H15.6362L15.2637 31H14.1802ZM16.4976 27.0249L15.8755 29.0312H17.1401L16.5181 27.0249H16.4976ZM21.3237 31.0854C19.8506 31.0854 18.9482 30.125 18.9482 28.5186V28.5151C18.9482 26.936 19.854 25.9824 21.2998 25.9824C22.4858 25.9824 23.2925 26.6729 23.4565 27.5991L23.4668 27.647H22.4312L22.4175 27.6128C22.2534 27.1343 21.8604 26.8574 21.3032 26.8574C20.4897 26.8574 20.001 27.459 20.001 28.5049V28.5083C20.001 29.5781 20.5205 30.2104 21.3408 30.2104C22.0142 30.2104 22.4756 29.8105 22.5029 29.2021L22.5063 29.1304H21.3784V28.3613H23.5112V28.9287C23.5112 30.272 22.6978 31.0854 21.3237 31.0854ZM24.1948 31V26.0679H27.4624V26.9189H25.2271V28.1016H27.3359V28.9082H25.2271V30.1489H27.4624V31H24.1948Z" fill="white"/>
<g clip-path="url(#clip0_2436_5752)">
<path d="M20.4998 13.6665C20.4998 14.3108 19.9775 14.8332 19.3332 14.8332C18.6888 14.8332 18.1665 14.3108 18.1665 13.6665C18.1665 13.0222 18.6888 12.4998 19.3332 12.4998C19.9775 12.4998 20.4998 13.0222 20.4998 13.6665Z" fill="white"/>
<path fill-rule="evenodd" clip-rule="evenodd" d="M16.9664 9.729H17.0333C18.3799 9.729 19.4351 9.72899 20.2585 9.83969C21.1013 9.953 21.7663 10.1894 22.2883 10.7114C22.8102 11.2334 23.0467 11.8984 23.16 12.7412C23.2707 13.5645 23.2707 14.6198 23.2707 15.9664V16.0179C23.2707 17.1313 23.2707 18.0428 23.2102 18.785C23.1494 19.5308 23.0249 20.154 22.7462 20.6716C22.6233 20.8999 22.4722 21.1043 22.2883 21.2883C21.7663 21.8102 21.1013 22.0467 20.2585 22.16C19.4351 22.2707 18.3799 22.2707 17.0333 22.2707H16.9664C15.6198 22.2707 14.5645 22.2707 13.7412 22.16C12.8984 22.0467 12.2334 21.8102 11.7114 21.2883C11.2487 20.8255 11.0097 20.2496 10.8826 19.5351C10.7578 18.8332 10.735 17.96 10.7302 16.8757C10.729 16.5999 10.729 16.3082 10.729 16.0004V15.9664C10.729 14.6198 10.729 13.5645 10.8397 12.7412C10.953 11.8984 11.1894 11.2334 11.7114 10.7114C12.2334 10.1894 12.8984 9.953 13.7412 9.83969C14.5645 9.72899 15.6198 9.729 16.9664 9.729ZM13.8578 10.7069C13.112 10.8071 12.6624 10.9978 12.3301 11.3301C11.9978 11.6624 11.8071 12.112 11.7069 12.8578C11.6049 13.6161 11.604 14.6125 11.604 15.9998C11.604 16.1693 11.604 16.3332 11.6042 16.4919L12.1882 15.9809C12.7198 15.5158 13.5209 15.5424 14.0204 16.0419L16.5227 18.5442C16.9236 18.9451 17.5547 18.9998 18.0185 18.6738L18.1925 18.5515C18.8599 18.0825 19.763 18.1368 20.3694 18.6826L22.0205 20.1685C22.1867 19.8195 22.2854 19.3609 22.3381 18.7139C22.3953 18.0113 22.3957 17.1349 22.3957 15.9998C22.3957 14.6125 22.3947 13.6161 22.2928 12.8578C22.1925 12.112 22.0018 11.6624 21.6695 11.3301C21.3372 10.9978 20.8877 10.8071 20.1419 10.7069C19.3836 10.6049 18.3871 10.604 16.9998 10.604C15.6125 10.604 14.6161 10.6049 13.8578 10.7069Z" fill="white"/>
</g>
<defs>
<filter id="filter0_d_2436_5752" x="21.3523" y="0.207112" width="9.59916" height="9.59916" filterUnits="userSpaceOnUse" color-interpolation-filters="sRGB">
<feFlood flood-opacity="0" result="BackgroundImageFix"/>
<feColorMatrix in="SourceAlpha" type="matrix" values="0 0 0 0 0 0 0 0 0 0 0 0 0 0 0 0 0 0 127 0" result="hardAlpha"/>
<feOffset dy="0.21519"/>
<feGaussianBlur stdDeviation="0.537975"/>
<feComposite in2="hardAlpha" operator="out"/>
<feColorMatrix type="matrix" values="0 0 0 0 0 0 0 0 0 0 0 0 0 0 0 0 0 0 0.15 0"/>
<feBlend mode="normal" in2="BackgroundImageFix" result="effect1_dropShadow_2436_5752"/>
<feBlend mode="normal" in="SourceGraphic" in2="effect1_dropShadow_2436_5752" result="shape"/>
</filter>
<linearGradient id="paint0_linear_2436_5752" x1="4" y1="-2.5" x2="30" y2="35" gradientUnits="userSpaceOnUse">
<stop stop-color="#74D8C7"/>
<stop offset="1" stop-color="#0EBFA1"/>
</linearGradient>
<clipPath id="clip0_2436_5752">
<rect width="14" height="14" fill="white" transform="translate(10 9)"/>
</clipPath>
</defs>
</svg>
