<svg width="30" height="32" viewBox="0 0 30 32" fill="none" xmlns="http://www.w3.org/2000/svg">
    <g clip-path="url(#clip0_2334_2550)">
        <path d="M1.5733 16.0583L2.5319 13.8777C2.5886 13.7486 2.6516 13.6205 2.7192 13.4973C3.119 12.7662 3.7751 12.2158 4.5665 11.9475C5.3555 11.68 6.2108 11.7157 6.9751 12.0481L7.3445 12.2087L7.8165 11.1349C7.8164 11.135 7.8166 11.1348 7.8165 11.1349L8.1645 10.3434C8.4617 9.6675 9.0052 9.14887 9.6948 8.88324C10.3811 8.61895 11.1277 8.63814 11.7976 8.93717L13.0233 9.46816C13.25 9.14561 13.5254 8.8995 13.8465 8.73331C14.5171 8.38622 15.324 8.41542 16.2446 8.8202L17.1217 9.20573L18.257 6.62316C18.7191 5.57182 19.5769 4.85041 20.6102 4.64388C21.5816 4.44971 22.5707 4.72452 23.2563 5.37886C24.2851 6.36066 24.5806 7.83483 24.0099 9.13312L19.7092 18.9775C20.0693 18.9047 20.4488 18.8713 20.8339 18.8807C21.8341 18.9054 22.7335 19.2235 23.3357 19.7597C23.3752 19.7854 23.4124 19.8157 23.4464 19.8508C24.0516 20.474 24.3499 21.2279 24.3093 22.0309C24.2585 23.0345 23.6853 24.0241 22.6516 24.8929C22.6464 24.8973 22.6411 24.9017 22.6356 24.9059L13.7954 31.8635C13.6811 31.9535 13.5418 32 13.4011 32C13.3143 32 13.2269 31.9823 13.1446 31.9461L0.480303 26.3788C0.262003 26.2828 0.115501 26.073 0.100601 25.835L0.031702 24.7314C-0.153098 21.772 0.379901 18.7728 1.5733 16.0583ZM1.3041 24.652L1.3488 25.3679L13.3075 30.6251L21.8388 23.9106C22.579 23.2861 23.004 22.596 23.0359 21.9665C23.0566 21.5584 22.9167 21.1783 22.6199 20.8351C22.5985 20.8181 22.578 20.7996 22.5585 20.7795C21.7954 19.9936 19.8924 19.9393 18.8986 20.6681L16.7028 22.777C16.5792 22.8957 16.4201 22.9547 16.2613 22.9547C16.0938 22.9547 15.9266 22.8891 15.8014 22.7588C15.5575 22.5049 15.5657 22.1014 15.8196 21.8575L17.9561 19.8055L22.842 8.6213C23.2702 7.64728 22.882 6.78412 22.3758 6.30112C21.9964 5.93892 21.4154 5.78294 20.8598 5.89405C20.2307 6.01982 19.7207 6.46093 19.4239 7.13618L15.7228 15.5551C15.6178 15.7939 15.3841 15.9361 15.1389 15.9361C15.0532 15.9361 14.9662 15.9188 14.8827 15.8821C14.5604 15.7404 14.414 15.3643 14.5557 15.042L16.6084 10.3727L15.7312 9.98718C15.1807 9.74527 14.7436 9.70428 14.4322 9.86549C14.2117 9.97959 14.0259 10.2057 13.8799 10.5377L11.6973 15.5027C11.5923 15.7415 11.3586 15.8837 11.1134 15.8837C11.0277 15.8837 10.9407 15.8664 10.8572 15.8297C10.5349 15.688 10.3885 15.3119 10.5302 14.9896L12.4549 10.6113L11.2871 10.1053C11.2846 10.1042 11.2822 10.1032 11.2798 10.1021C10.9212 9.94141 10.521 9.93095 10.1527 10.0727C9.7824 10.2153 9.4907 10.4936 9.3313 10.8563L6.7377 16.7568C6.6327 16.9957 6.399 17.1379 6.1538 17.1379C6.0681 17.1379 5.981 17.1206 5.8976 17.0839C5.5753 16.9422 5.4289 16.5661 5.5706 16.2438L6.8314 13.3757L6.4667 13.2172C5.4807 12.7883 4.3503 13.1717 3.8376 14.1092C3.7876 14.2004 3.741 14.2951 3.699 14.3907L2.7404 16.5713C1.6286 19.1004 1.1319 21.8947 1.3041 24.652Z" fill="#302BD6"/>
        <path d="M3.80889 24.4828L4.43779 24.7586C4.76019 24.9 4.90689 25.2759 4.76549 25.5984C4.66059 25.8375 4.42679 25.9799 4.18139 25.9799C4.09589 25.9799 4.00899 25.9627 3.92569 25.9261L3.29689 25.6503C2.97449 25.5089 2.82779 25.1329 2.96919 24.8105C3.11049 24.4881 3.48649 24.3413 3.80889 24.4828Z" fill="#302BD6"/>
        <path d="M6.34513 25.6095L13.0608 28.5551C13.3833 28.6964 13.5299 29.0724 13.3885 29.3948C13.2837 29.6339 13.0499 29.7764 12.8044 29.7764C12.719 29.7764 12.632 29.7591 12.5488 29.7226L5.83302 26.777C5.51062 26.6356 5.36393 26.2597 5.50533 25.9372C5.64663 25.6149 6.02263 25.4681 6.34513 25.6095Z" fill="#302BD6"/>
        <path d="M22.9031 2.88106C22.8409 3.18239 22.5755 3.38975 22.2795 3.38975C22.2367 3.38975 22.1933 3.38541 22.1499 3.37649C21.8051 3.30529 21.5834 2.96807 21.6546 2.62328L22.0912 0.508606C22.1624 0.163873 22.4997 -0.0577688 22.8444 0.0132432C23.1892 0.0843826 23.4109 0.421594 23.3397 0.766391L22.9031 2.88106Z" fill="#302BD6"/>
        <path d="M28.3841 2.99049C28.1987 2.69115 28.2911 2.29829 28.5904 2.11292L29.0307 1.84028C29.33 1.65485 29.7229 1.74721 29.9083 2.04656C30.0937 2.3459 30.0013 2.73877 29.702 2.92414L29.2617 3.19677C29.1572 3.26154 29.0412 3.29239 28.9267 3.29239C28.7133 3.29239 28.5047 3.18524 28.3841 2.99049Z" fill="#302BD6"/>
        <path d="M27.1464 4.60529L25.7865 5.4997C25.6786 5.57071 25.5571 5.60463 25.4368 5.60463C25.2295 5.60463 25.0261 5.50359 24.9036 5.31739C24.7101 5.02327 24.7918 4.62799 25.0859 4.43452L26.4458 3.54012C26.74 3.34665 27.1352 3.42831 27.3287 3.72243C27.5221 4.01655 27.4405 4.41183 27.1464 4.60529Z" fill="#302BD6"/>
        <path d="M25.4779 8.63679C25.5491 8.29206 25.8862 8.07036 26.2312 8.14143L28.3458 8.57809C28.6906 8.64922 28.9124 8.98644 28.8412 9.33123C28.779 9.63255 28.5136 9.83992 28.2176 9.83992C28.1749 9.83992 28.1315 9.83558 28.088 9.82666L25.9733 9.39001C25.6285 9.3188 25.4067 8.98159 25.4779 8.63679Z" fill="#302BD6"/>
        <path d="M23.875 11.9192C24.1691 11.7256 24.5644 11.8074 24.7578 12.1015L25.9444 13.9055C26.1378 14.1997 26.0562 14.5949 25.7621 14.7884C25.6541 14.8594 25.5326 14.8933 25.4124 14.8933C25.205 14.8933 25.0017 14.7923 24.8792 14.6061L23.6926 12.802C23.4992 12.5079 23.5808 12.1126 23.875 11.9192Z" fill="#302BD6"/>
        <path d="M16.8895 6.70473C16.8273 7.00599 16.5619 7.21335 16.2659 7.21335C16.2232 7.21335 16.1799 7.20902 16.1363 7.20009L14.7265 6.90897C14.3817 6.83777 14.16 6.50055 14.2312 6.15576C14.3024 5.81096 14.6395 5.58919 14.9844 5.6604L16.3942 5.95152C16.739 6.02272 16.9607 6.35993 16.8895 6.70473Z" fill="#302BD6"/>
        <path d="M12.3011 6.39452C12.2584 6.39452 12.215 6.39019 12.1715 6.38126L11.7309 6.2903C11.3861 6.21909 11.1643 5.88188 11.2355 5.53709C11.3067 5.19235 11.6437 4.97058 11.9887 5.04172L12.4293 5.13269C12.7741 5.20389 12.9959 5.5411 12.9247 5.8859C12.8625 6.18716 12.5971 6.39452 12.3011 6.39452Z" fill="#302BD6"/>
        <path d="M18.8304 3.95099C18.7224 4.022 18.6009 4.05592 18.4807 4.05592C18.2734 4.05592 18.07 3.95488 17.9476 3.76868L16.761 1.96463C16.5675 1.67051 16.6492 1.27523 16.9433 1.08177C17.2375 0.888239 17.6328 0.96996 17.8262 1.26408L19.0127 3.06812C19.2062 3.36224 19.1245 3.75753 18.8304 3.95099Z" fill="#302BD6"/>
    </g>
    <defs>
        <clipPath id="clip0_2334_2550">
            <rect width="30" height="32" fill="white" transform="matrix(-1 0 0 1 30 0)"/>
        </clipPath>
    </defs>
</svg>
