<svg width="24" height="24" viewBox="0 0 24 24" fill="none" xmlns="http://www.w3.org/2000/svg">
    <path
        d="M12.0033 7.83333C11.0828 7.83333 10.3366 7.08714 10.3366 6.16667C10.3366 5.24619 11.0828 4.5 12.0033 4.5C12.9237 4.5 13.6699 5.24619 13.6699 6.16667C13.6699 7.08714 12.9237 7.83333 12.0033 7.83333Z"
        fill="#808080" />
    <path
        d="M12.0033 13.6667C11.0828 13.6667 10.3366 12.9205 10.3366 12C10.3366 11.0795 11.0828 10.3333 12.0033 10.3333C12.9237 10.3333 13.6699 11.0795 13.6699 12C13.6699 12.9205 12.9237 13.6667 12.0033 13.6667Z"
        fill="#808080" />
    <path
        d="M12.0033 19.5C11.0828 19.5 10.3366 18.7538 10.3366 17.8333C10.3366 16.9129 11.0828 16.1667 12.0033 16.1667C12.9237 16.1667 13.6699 16.9129 13.6699 17.8333C13.6699 18.7538 12.9237 19.5 12.0033 19.5Z"
        fill="#808080" />
</svg>
