<svg width="21" height="8" viewBox="0 0 21 8" fill="none" xmlns="http://www.w3.org/2000/svg">
<path d="M14.7729 7.43209C13.8769 7.43209 13.0449 7.27209 12.2769 6.95209C11.5089 6.63209 10.7569 6.26409 10.0209 5.84809C9.28494 5.43209 8.54894 5.06409 7.81294 4.74409C7.10894 4.42409 6.38894 4.26409 5.65294 4.26409C4.69294 4.26409 3.86094 4.52009 3.15694 5.03209C2.45294 5.51209 1.89294 6.29609 1.47694 7.38409L0.900938 7.19209C1.47694 5.68809 2.08494 4.47209 2.72494 3.54409C3.36494 2.61609 4.06894 1.94409 4.83694 1.52809C5.60494 1.08009 6.48494 0.856091 7.47694 0.856091C8.37294 0.856091 9.20494 1.01609 9.97294 1.33609C10.7409 1.62409 11.4769 1.97609 12.1809 2.39209C12.8849 2.80809 13.5729 3.17609 14.2449 3.49609C14.9169 3.78409 15.6049 3.92809 16.3089 3.92809C17.0769 3.92809 17.7009 3.72009 18.1809 3.30409C18.6929 2.85609 19.1089 2.13609 19.4289 1.14409L20.1009 1.28809C19.5889 2.76009 19.0609 3.96009 18.5169 4.88809C17.9729 5.78409 17.3969 6.44009 16.7889 6.85609C16.2129 7.24009 15.5409 7.43209 14.7729 7.43209Z" fill="black"/>
</svg>
