<svg width="21" height="8" viewBox="0 0 21 8" fill="none" xmlns="http://www.w3.org/2000/svg">
<path d="M14.0049 7.91209C13.1409 7.91209 12.3249 7.80009 11.5569 7.57609C10.7889 7.32009 10.0529 7.04809 9.34894 6.76009C8.64494 6.44009 7.95694 6.16809 7.28494 5.94409C6.61294 5.72009 5.95694 5.60809 5.31694 5.60809C4.42094 5.60809 3.63694 5.78409 2.96494 6.13609C2.29294 6.48809 1.78094 7.08009 1.42894 7.91209L0.900938 7.62409C1.70094 5.76809 2.46894 4.29609 3.20494 3.20809C3.94094 2.12009 4.72494 1.35209 5.55694 0.904091C6.42094 0.424091 7.39694 0.184091 8.48494 0.184091C9.34894 0.184091 10.1329 0.296091 10.8369 0.520091C11.5729 0.712091 12.2609 0.952091 12.9009 1.24009C13.5409 1.52809 14.1649 1.78409 14.7729 2.00809C15.4129 2.20009 16.0689 2.29609 16.7409 2.29609C17.3489 2.29609 17.8609 2.18409 18.2769 1.96009C18.7249 1.70409 19.0929 1.25609 19.3809 0.616091L20.1009 0.808091C19.3329 2.56809 18.6289 3.97609 17.9889 5.03209C17.3489 6.05609 16.7089 6.79209 16.0689 7.24009C15.4609 7.68809 14.7729 7.91209 14.0049 7.91209Z" fill="black"/>
</svg>
