<svg width="21" height="7" viewBox="0 0 21 7" fill="none" xmlns="http://www.w3.org/2000/svg">
<path d="M15.3969 6.04809C14.5329 6.04809 13.7009 5.85609 12.9009 5.47209C12.1329 5.05609 11.3649 4.59209 10.5969 4.08009C9.86094 3.56809 9.10894 3.12009 8.34094 2.73609C7.57294 2.35209 6.77294 2.16009 5.94094 2.16009C4.91694 2.16009 4.03694 2.46409 3.30094 3.07209C2.56494 3.68009 1.97294 4.64009 1.52494 5.95209L0.900938 5.80809C1.28494 4.59209 1.74894 3.58409 2.29294 2.78409C2.83694 1.98409 3.47694 1.39209 4.21294 1.00809C4.94894 0.624091 5.73294 0.43209 6.56494 0.43209C7.52494 0.43209 8.40494 0.624091 9.20494 1.00809C10.0049 1.39209 10.7729 1.84009 11.5089 2.35209C12.2769 2.86409 13.0289 3.32809 13.7649 3.74409C14.5009 4.12809 15.2369 4.32009 15.9729 4.32009C16.8369 4.32009 17.5569 4.01609 18.1329 3.40809C18.7089 2.80009 19.1569 1.87209 19.4769 0.624091L20.1009 0.720091C19.7809 1.93609 19.3969 2.94409 18.9489 3.74409C18.5009 4.54409 17.9889 5.13609 17.4129 5.52009C16.8369 5.87209 16.1649 6.04809 15.3969 6.04809Z" fill="black"/>
</svg>
