<svg width="25" height="25" viewBox="0 0 25 25" fill="none" xmlns="http://www.w3.org/2000/svg">
    <path d="M18.9991 10.3762V9.67163C18.9991 5.80289 15.9774 2.66666 12.25 2.66666C8.52256 2.66666 5.50087 5.80289 5.50087 9.67163V10.3762C5.50087 11.2218 5.25972 12.0485 4.8078 12.7521L3.70036 14.4762C2.68882 16.051 3.46105 18.1916 5.22036 18.6896C9.82274 19.9924 14.6773 19.9924 19.2796 18.6896C21.039 18.1916 21.8112 16.051 20.7996 14.4762L19.6922 12.7521C19.2403 12.0485 18.9991 11.2218 18.9991 10.3762Z" stroke="#0077FF" stroke-width="1.5"/>
    <path d="M7.75 19.6667C8.40503 21.4145 10.1725 22.6667 12.25 22.6667C14.3275 22.6667 16.095 21.4145 16.75 19.6667" stroke="#0077FF" stroke-width="1.5" stroke-linecap="round"/>
</svg>
