<svg width="21" height="21" viewBox="0 0 21 21" fill="none" xmlns="http://www.w3.org/2000/svg">
<path d="M15.3873 10.9479C14.8322 11.541 14.3228 11.4194 13.8209 10.9251L13.3723 10.4765L5.9206 17.8826C2.87909 20.9089 3.15283 19.3653 0.924921 20.9773L0.103714 20.1029C1.73092 17.8065 0.331827 18.2248 3.32011 15.2365L10.7338 7.8304L10.2852 7.38938C9.79092 6.88753 9.66926 6.37808 10.2624 5.82301L10.5361 5.57208C11.0303 5.11586 11.6006 5.08544 12.0873 5.58729L12.3838 5.88384C13.7145 4.4011 13.9046 2.72067 14.9463 1.71697C16.429 0.302671 18.444 0.736086 19.4553 1.75499C20.4666 2.7739 20.9304 4.8041 19.4933 6.26403C18.4744 7.29053 16.8092 7.49584 15.3265 8.8265L15.623 9.12304C16.1249 9.60968 16.0944 10.18 15.6382 10.6742L15.3873 10.9479ZM7.57062 13.6701C7.95841 14.0883 8.44505 13.959 8.82524 13.5789L12.6575 9.75416L11.4713 8.56797L7.67707 12.3851C7.25886 12.8185 7.16762 13.2291 7.57062 13.6701Z" fill="#007AFF"/>
</svg>
