<svg width="24" height="24" viewBox="0 0 24 24" fill="none" xmlns="http://www.w3.org/2000/svg">
    <path
        d="M1.6875 6.75V3.75C1.6875 2.61 2.61 1.6875 3.75 1.6875H6.75C7.0575 1.6875 7.3125 1.9425 7.3125 2.25C7.3125 2.5575 7.0575 2.8125 6.75 2.8125H3.75C3.2325 2.8125 2.8125 3.2325 2.8125 3.75V6.75C2.8125 7.0575 2.5575 7.3125 2.25 7.3125C1.9425 7.3125 1.6875 7.0575 1.6875 6.75ZM20.25 1.6875H17.25C16.9425 1.6875 16.6875 1.9425 16.6875 2.25C16.6875 2.5575 16.9425 2.8125 17.25 2.8125H20.25C20.7675 2.8125 21.1875 3.2325 21.1875 3.75V6.75C21.1875 7.0575 21.4425 7.3125 21.75 7.3125C22.0575 7.3125 22.3125 7.0575 22.3125 6.75V3.75C22.3125 2.61 21.39 1.6875 20.25 1.6875ZM21.75 16.6875C21.4425 16.6875 21.1875 16.9425 21.1875 17.25V20.25C21.1875 20.7675 20.7675 21.1875 20.25 21.1875H17.25C16.9425 21.1875 16.6875 21.4425 16.6875 21.75C16.6875 22.0575 16.9425 22.3125 17.25 22.3125H20.25C21.39 22.3125 22.3125 21.39 22.3125 20.25V17.25C22.3125 16.9425 22.0575 16.6875 21.75 16.6875ZM6.75 21.1875H3.75C3.2325 21.1875 2.8125 20.7675 2.8125 20.25V17.25C2.8125 16.9425 2.5575 16.6875 2.25 16.6875C1.9425 16.6875 1.6875 16.9425 1.6875 17.25V20.25C1.6875 21.39 2.61 22.3125 3.75 22.3125H6.75C7.0575 22.3125 7.3125 22.0575 7.3125 21.75C7.3125 21.4425 7.0575 21.1875 6.75 21.1875ZM15 7.6875H17.4825L14.8125 5.0175V7.5C14.8125 7.605 14.895 7.6875 15 7.6875ZM6.1875 6.75V11.4375H3.75C3.4425 11.4375 3.1875 11.6925 3.1875 12C3.1875 12.3075 3.4425 12.5625 3.75 12.5625H20.25C20.5575 12.5625 20.8125 12.3075 20.8125 12C20.8125 11.6925 20.5575 11.4375 20.25 11.4375H17.8125V8.8125H15C14.28 8.8125 13.6875 8.22 13.6875 7.5V4.6875H8.25C7.11 4.6875 6.1875 5.61 6.1875 6.75ZM17.8125 17.25V13.6875H6.1875V17.25C6.1875 18.39 7.11 19.3125 8.25 19.3125H15.75C16.89 19.3125 17.8125 18.39 17.8125 17.25Z"
        fill="#2979FF" />
</svg>
