<svg width="24" height="25" viewBox="0 0 24 25" fill="none" xmlns="http://www.w3.org/2000/svg">
    <path d="M14.5 20.1976H9.5M14.5 20.1976C14.5 19.4841 14.5 19.1273 14.5381 18.8906C14.6609 18.1272 14.6824 18.0791 15.1692 17.4784C15.3201 17.2921 15.8805 16.7903 17.0012 15.7868C18.5349 14.4135 19.5 12.4183 19.5 10.1976C19.5 6.0555 16.1421 2.69763 12 2.69763C7.85786 2.69763 4.5 6.0555 4.5 10.1976C4.5 12.4183 5.4651 14.4135 6.99876 15.7868C8.11945 16.7903 8.67987 17.2921 8.83082 17.4784C9.31762 18.0791 9.3391 18.1272 9.46192 18.8906C9.5 19.1273 9.5 19.4841 9.5 20.1976M14.5 20.1976C14.5 21.1322 14.5 21.5996 14.299 21.9476C14.1674 22.1757 13.978 22.365 13.75 22.4967C13.4019 22.6976 12.9346 22.6976 12 22.6976C11.0654 22.6976 10.5981 22.6976 10.25 22.4967C10.022 22.365 9.83261 22.1757 9.70096 21.9476C9.5 21.5996 9.5 21.1322 9.5 20.1976" stroke="#302BD6" stroke-width="1.5"/>
    <path d="M12 17.6976V15.6976" stroke="#302BD6" stroke-width="1.5" stroke-linecap="round"/>
    <path d="M13.7324 14.6976C13.3866 15.2954 12.7403 15.6976 12 15.6976C11.2597 15.6976 10.6134 15.2954 10.2676 14.6976" stroke="#302BD6" stroke-width="1.5" stroke-linecap="round"/>
</svg>
