<svg width="16" height="16" viewBox="0 0 16 16" fill="none" xmlns="http://www.w3.org/2000/svg">
<path d="M6.33325 9.33333C7.43782 9.33333 8.33325 10.2288 8.33325 11.3333C8.33325 12.4379 7.43782 13.3333 6.33325 13.3333C5.22868 13.3333 4.33325 12.4379 4.33325 11.3333C4.33325 10.2288 5.22868 9.33333 6.33325 9.33333Z" stroke="#595959"/>
<path d="M9.66675 2.66664C8.56218 2.66664 7.66675 3.56207 7.66675 4.66664C7.66675 5.77121 8.56218 6.66664 9.66675 6.66664C10.7713 6.66664 11.6667 5.77121 11.6667 4.66664C11.6667 3.56207 10.7713 2.66664 9.66675 2.66664Z" stroke="#595959"/>
<path d="M10 11.3057L14.6667 11.3057" stroke="#595959" stroke-linecap="round"/>
<path d="M6 4.63901L1.33333 4.63901" stroke="#595959" stroke-linecap="round"/>
<path d="M1.33325 11.3057L2.66659 11.3057" stroke="#595959" stroke-linecap="round"/>
<path d="M14.6667 4.63901L13.3334 4.63901" stroke="#595959" stroke-linecap="round"/>
</svg>
