<svg width="24" height="24" viewBox="0 0 24 24" fill="none" xmlns="http://www.w3.org/2000/svg">
    <path d="M2 16C2 13.1716 2 11.7574 2.87868 10.8787C3.75736 10 5.17157 10 8 10H16C18.8284 10 20.2426 10 21.1213 10.8787C22 11.7574 22 13.1716 22 16C22 18.8285 22 20.2427 21.1213 21.1214C20.2426 22 18.8284 22 16 22H8C5.17157 22 3.75736 22 2.87868 21.1214C2 20.2427 2 18.8285 2 16Z" stroke="#808080" stroke-width="1.5"/>
    <circle cx="12" cy="16" r="2" stroke="#808080" stroke-width="1.5"/>
    <path d="M6 10V8.00003C6 4.68632 8.68629 2.00003 12 2.00003C14.7958 2.00003 17.1449 3.91219 17.811 6.50003" stroke="#808080" stroke-width="1.5" stroke-linecap="round"/>
</svg>
