<svg width="20" height="20" viewBox="0 0 20 20" fill="none" xmlns="http://www.w3.org/2000/svg">
    <path
        d="M10 6.11111C9.17157 6.11111 8.5 5.41467 8.5 4.55556C8.5 3.69645 9.17157 3 10 3C10.8284 3 11.5 3.69645 11.5 4.55556C11.5 5.41467 10.8284 6.11111 10 6.11111Z"
        fill="#595959" />
    <path
        d="M10 11.5556C9.17157 11.5556 8.5 10.8591 8.5 10C8.5 9.14089 9.17157 8.44444 10 8.44444C10.8284 8.44444 11.5 9.14089 11.5 10C11.5 10.8591 10.8284 11.5556 10 11.5556Z"
        fill="#595959" />
    <path
        d="M10 17C9.17157 17 8.5 16.3036 8.5 15.4444C8.5 14.5853 9.17157 13.8889 10 13.8889C10.8284 13.8889 11.5 14.5853 11.5 15.4444C11.5 16.3036 10.8284 17 10 17Z"
        fill="#595959" />
</svg>
